<svg id="Ebene_1" data-name="Ebene 1" xmlns="http://www.w3.org/2000/svg" viewBox="0 0 400 400">
  <defs>
    <style>
      .cls-1 {
        fill: #eee;
      }
    </style>
  </defs>
  <path class="cls-1" d="M343.06,193.94v9.45c-.09.51-.2,1-.27,1.53-.49,4.11-.81,8.24-1.49,12.32a100.39,100.39,0,0,1-14.2,37,105.92,105.92,0,0,1-44,39.52,104.21,104.21,0,0,1-34,9.93c-2.62.3-5.25.57-7.87.86H139.47a13.44,13.44,0,0,0-1.54-.28,87.41,87.41,0,0,1-29.55-7A89.73,89.73,0,0,1,62.6,254.11a84.23,84.23,0,0,1-8.46-27.88c-.29-2.37-.57-4.72-.86-7.08V210a11.14,11.14,0,0,0,.28-1.53,83.55,83.55,0,0,1,5.58-25.59q13-33.18,45.13-49.16a88.82,88.82,0,0,1,35.35-9,99.24,99.24,0,0,1,18.15.82,2.3,2.3,0,0,0,1.72-.55,107,107,0,0,1,29.67-21.3,104.42,104.42,0,0,1,34.11-10c2.82-.32,5.64-.58,8.46-.87h8.68c.57.09,1.14.19,1.71.26,4.3.5,8.63.81,12.88,1.52a102.56,102.56,0,0,1,37.11,14,105.61,105.61,0,0,1,40.06,43.69,100.82,100.82,0,0,1,10,33.67c.3,2.69.57,5.38.86,8.07M181,132.78c.18.23.21.34.29.37a115.61,115.61,0,0,1,17,10.2,1.75,1.75,0,0,0,1.59-.11,66,66,0,0,1,48-9.44,65,65,0,0,1,41,24.61c11.86,15.07,16.37,32.11,13.1,51.07-2.19,12.7-7.33,24.1-16.06,33.65C270,260.54,250,267.74,226.5,264.7a62.88,62.88,0,0,1-37.27-18.4c-13.26-13.27-26.6-26.45-39.9-39.69a10.81,10.81,0,0,0-6.29-3.49,10,10,0,0,0-10.44,5.63c-1.71,3.55-1.49,7.54,2.23,11.17,14.83,14.42,29.51,29,44.33,43.4a71.76,71.76,0,0,0,8.12,6.85c10.81,7.78,23,12.08,36.21,13.82a88.14,88.14,0,0,0,30.85-1.2A86.4,86.4,0,0,0,321,182.49a82.07,82.07,0,0,0-19.57-39.73C281.86,121,257.3,111.34,228.06,113.5a82.14,82.14,0,0,0-31.88,9.3,84,84,0,0,0-15.15,10m-7.14,151.65-1.21-1.12c-6.06-5.67-12.16-11.3-18.14-17a4.9,4.9,0,0,0-3.87-1.61c-6.06.14-12.14.16-18.11-1.17-29.71-6.66-47-38.68-36-66.84a51.29,51.29,0,0,1,56.14-31.57c10.56,1.88,19.85,6.3,27.46,14.09,9.28,9.5,18.85,18.73,28.24,28.13a8.48,8.48,0,0,0,7.55,2.7c3.82-.55,6.87-2.35,8.26-6.06a8.87,8.87,0,0,0-2.1-9.93c-9.85-9.89-19.47-20-29.72-29.49-19.89-18.37-43.33-23.84-69.26-16A69,69,0,0,0,75.81,230a70.07,70.07,0,0,0,68.71,54.63h27.75a13.1,13.1,0,0,0,1.64-.08"/>
</svg>
