<svg id="Ebene_1" data-name="Ebene 1" xmlns="http://www.w3.org/2000/svg" xmlns:xlink="http://www.w3.org/1999/xlink" viewBox="0 0 400 400">
  <defs>
    <style>
      .cls-1 {
        fill: #eee;
      }

      .cls-2 {
        clip-path: url(#clip-path);
      }

      .cls-3 {
        clip-path: url(#clip-path-2);
      }

      .cls-4 {
        fill: none;
      }
    </style>
    <clipPath id="clip-path">
      <path class="cls-1" d="M-677.25,237.35c-4.5,0-6.3-2.7-6.3-2.7-.3-1.2-.6-19.05-.75-36.75-.15-18.45,0-36.75.9-36.9,5.25-9.75,21.75-29.4,21.75-29.4-30.9,6.15-47.7,26.4-47.7,26.4-4.95-3.9-15.15-3.3-15.15-3.3,4.8,2.55,9.45,10.2,9.45,16.5v62.1s-10.35,9.15-18.3,9.15a11.4,11.4,0,0,1-9.3-4.65,13.56,13.56,0,0,1-1.5-2.7V158.45a6.71,6.71,0,0,1-3.75,1.35c-1.65,0-3.45-.9-4.65-3.3-.9-1.95-1.5-4.65-1.5-8.85,0-14.1,16-23.55,16-23.55-20.25,5.4-39.15,15.9-64.2,44.7s-20.26,52.5-20.26,52.5,6.75-16.5,23.41-33.75c7.95-8.1,13.8-10.8,17.85-11a6.21,6.21,0,0,1,6.6,6.3v58.35c0,5.7-3.75,7.05-7.2,6.9a17.43,17.43,0,0,1-5.55-1.05c17.1,24.75,57.9,28.35,57.9,28.35l18-19.2.45.3,16.5,13.95c30-17.85,44.55-51,44.55-51-13.65,14.55-22.2,17.85-27.3,17.85"/>
    </clipPath>
    <clipPath id="clip-path-2">
      <path class="cls-1" d="M-731.85,79.84a117.64,117.64,0,0,1,84.3,35.25,120.07,120.07,0,0,1,35,85.06,120.33,120.33,0,0,1-35,85.06,118.26,118.26,0,0,1-84.3,35.25,117.68,117.68,0,0,1-84.31-35.25,120.11,120.11,0,0,1-35-85.06,120.37,120.37,0,0,1,35-85.06,117.43,117.43,0,0,1,84.31-35.25m0-5.55c-69,0-124.81,56.26-124.81,125.71S-800.85,325.71-732,325.71-607.34,269.45-607.34,200-663,74.29-731.85,74.29"/>
    </clipPath>
  </defs>
  <g>
    <g>
      <path class="cls-1" d="M-677.25,237.35c-4.5,0-6.3-2.7-6.3-2.7-.3-1.2-.6-19.05-.75-36.75-.15-18.45,0-36.75.9-36.9,5.25-9.75,21.75-29.4,21.75-29.4-30.9,6.15-47.7,26.4-47.7,26.4-4.95-3.9-15.15-3.3-15.15-3.3,4.8,2.55,9.45,10.2,9.45,16.5v62.1s-10.35,9.15-18.3,9.15a11.4,11.4,0,0,1-9.3-4.65,13.56,13.56,0,0,1-1.5-2.7V158.45a6.71,6.71,0,0,1-3.75,1.35c-1.65,0-3.45-.9-4.65-3.3-.9-1.95-1.5-4.65-1.5-8.85,0-14.1,16-23.55,16-23.55-20.25,5.4-39.15,15.9-64.2,44.7s-20.26,52.5-20.26,52.5,6.75-16.5,23.41-33.75c7.95-8.1,13.8-10.8,17.85-11a6.21,6.21,0,0,1,6.6,6.3v58.35c0,5.7-3.75,7.05-7.2,6.9a17.43,17.43,0,0,1-5.55-1.05c17.1,24.75,57.9,28.35,57.9,28.35l18-19.2.45.3,16.5,13.95c30-17.85,44.55-51,44.55-51-13.65,14.55-22.2,17.85-27.3,17.85"/>
      <g class="cls-2">
        <rect class="cls-1" x="-975.46" y="-69.72" width="1058.46" height="705.64"/>
      </g>
    </g>
    <g>
      <path class="cls-1" d="M-731.85,79.84a117.64,117.64,0,0,1,84.3,35.25,120.07,120.07,0,0,1,35,85.06,120.33,120.33,0,0,1-35,85.06,118.26,118.26,0,0,1-84.3,35.25,117.68,117.68,0,0,1-84.31-35.25,120.11,120.11,0,0,1-35-85.06,120.37,120.37,0,0,1,35-85.06,117.43,117.43,0,0,1,84.31-35.25m0-5.55c-69,0-124.81,56.26-124.81,125.71S-800.85,325.71-732,325.71-607.34,269.45-607.34,200-663,74.29-731.85,74.29"/>
      <g class="cls-3">
        <rect class="cls-1" x="-975.46" y="-69.72" width="1058.46" height="705.64"/>
      </g>
    </g>
  </g>
  <path class="cls-1" d="M343.06,193.94v9.45c-.09.51-.2,1-.27,1.53-.49,4.11-.81,8.24-1.49,12.32a100.35,100.35,0,0,1-14.2,37,105.88,105.88,0,0,1-44,39.52,104.13,104.13,0,0,1-33.95,9.93c-2.62.3-5.25.57-7.87.86H139.47a13.44,13.44,0,0,0-1.54-.28,87.25,87.25,0,0,1-29.55-7A89.73,89.73,0,0,1,62.6,254.11a84.37,84.37,0,0,1-8.46-27.88c-.29-2.37-.57-4.72-.86-7.08V210a12,12,0,0,0,.28-1.53,83.55,83.55,0,0,1,5.58-25.59q13-33.18,45.13-49.16a88.8,88.8,0,0,1,35.35-9,99.32,99.32,0,0,1,18.15.82,2.27,2.27,0,0,0,1.72-.55,107,107,0,0,1,29.67-21.3,104.47,104.47,0,0,1,34.11-10c2.82-.32,5.64-.58,8.46-.87h8.68c.57.09,1.14.19,1.71.26,4.3.5,8.63.81,12.88,1.52a102.52,102.52,0,0,1,37.11,14,105.57,105.57,0,0,1,40.06,43.69,100.85,100.85,0,0,1,10,33.67c.3,2.69.57,5.38.86,8.07M181,132.78c.18.23.21.34.29.37a115.91,115.91,0,0,1,17,10.2,1.77,1.77,0,0,0,1.59-.11,66,66,0,0,1,47.95-9.44,65,65,0,0,1,41,24.61c11.86,15.07,16.37,32.11,13.1,51.07-2.19,12.7-7.33,24.1-16.06,33.65-15.92,17.41-35.88,24.61-59.37,21.57a62.91,62.91,0,0,1-37.27-18.4c-13.26-13.27-26.6-26.45-39.9-39.69a10.84,10.84,0,0,0-6.29-3.49,10,10,0,0,0-10.44,5.63c-1.71,3.55-1.49,7.54,2.23,11.17,14.83,14.42,29.51,29,44.33,43.4a71.76,71.76,0,0,0,8.12,6.85c10.81,7.78,23,12.08,36.21,13.82a88.11,88.11,0,0,0,30.85-1.2,85.72,85.72,0,0,0,48.3-29.37A85.3,85.3,0,0,0,321,182.49a82,82,0,0,0-19.57-39.73C281.86,121,257.3,111.34,228.06,113.5a82.17,82.17,0,0,0-31.88,9.3,84,84,0,0,0-15.15,10m-7.14,151.65-1.21-1.12c-6.06-5.67-12.16-11.3-18.14-17a4.93,4.93,0,0,0-3.87-1.61c-6.06.14-12.14.16-18.11-1.17-29.71-6.66-47-38.68-36-66.84a51.29,51.29,0,0,1,56.14-31.57c10.56,1.88,19.85,6.3,27.46,14.09,9.28,9.5,18.85,18.73,28.24,28.13a8.48,8.48,0,0,0,7.55,2.7c3.82-.55,6.87-2.35,8.26-6.06a8.88,8.88,0,0,0-2.1-9.93c-9.85-9.89-19.47-20-29.72-29.49-19.89-18.37-43.33-23.84-69.26-16a69,69,0,0,0-47.32,81.39,70.08,70.08,0,0,0,68.71,54.63h27.75c.47,0,.92,0,1.64-.08"/>
  <rect class="cls-4" width="400" height="400"/>
</svg>
