<svg id="Ebene_1" data-name="Ebene 1" xmlns="http://www.w3.org/2000/svg" viewBox="0 0 400 400">
  <defs>
    <style>
      .cls-1 {
        fill: #eee;
      }
    </style>
  </defs>
  <path class="cls-1" d="M171,194.31c.95,2.76,1.8,5.42,2.44,7.65h-27c1.59-4.46,3.29-9.45,4.67-14.87,1.7-5.31,3.29-10.62,4.89-15.71a134.64,134.64,0,0,0,3.61-13.7h.21c.74,2.55,1.49,5.31,2.34,8.28s1.8,6.16,2.86,9.45,2,6.48,3.08,9.77S170.07,191.44,171,194.31Z"/>
  <path class="cls-1" d="M287.2,74.43H122.61a45.08,45.08,0,0,0-45.13,45V277.77a45.08,45.08,0,0,0,45,45.13H287.2a45.08,45.08,0,0,0,45.12-45V119.56a45.08,45.08,0,0,0-45-45.13ZM212.44,249.21H190.25a1.6,1.6,0,0,1-1.7-1.17l-8.71-25.48v.53h-39.5l-8.07,25.06a1.85,1.85,0,0,1-2,1.48h-20c-1.17,0-1.49-.63-1.17-1.91l34.19-98c.32-1.06.64-2,1.07-3.29a38.09,38.09,0,0,0,.63-6.9,1.06,1.06,0,0,1,.85-1.17h27.5c.75,0,1.28.32,1.38.85l38.78,108.3C213.82,248.68,213.5,249.21,212.44,249.21Zm82.93-41.63c-.21,2-.32,3.51-.42,4.46a1.59,1.59,0,0,1-1.49,1.38c-.64,0-1.81.11-3.5.22a50.64,50.64,0,0,1-6.16.32c-2.45,0-5-.43-7.75-.43H242.38a23.48,23.48,0,0,0,3.3,9.45,16.78,16.78,0,0,0,7.75,6.37A33.12,33.12,0,0,0,267,232a64.58,64.58,0,0,0,11-1.17,40.55,40.55,0,0,0,9.45-2.44c.53-.43.85-.22.85.85v16.24a5.61,5.61,0,0,1-.21,1.28,2.38,2.38,0,0,1-.74.74,45.79,45.79,0,0,1-10.62,3.19,72.1,72.1,0,0,1-15,1.31c-8.07,0-14.87-1.27-20.39-3.72a35.8,35.8,0,0,1-13.38-10.08,39,39,0,0,1-7.32-13.91A55.11,55.11,0,0,1,221,191.9a43.45,43.45,0,0,1,8-14.55,38.61,38.61,0,0,1,12.84-10.09c5-2.44,10.94-3.29,17.74-3.29a38.68,38.68,0,0,1,16.46,3.29,29.39,29.39,0,0,1,11.15,8.5,38.79,38.79,0,0,1,6.37,12.1,41.87,41.87,0,0,1,2,13C295.58,203.34,295.48,205.57,295.37,207.58Zm-36.53-25.27a14.94,14.94,0,0,0-14.12,8.07,22.15,22.15,0,0,0-2.34,7.65h22.41c2.76,0,4.78,0,6-.11a5.11,5.11,0,0,0,2.44-.85V196a12.48,12.48,0,0,0-.63-3.93A14.05,14.05,0,0,0,258.84,182.31Z"/>
</svg>
