<svg id="Ebene_1" data-name="Ebene 1" xmlns="http://www.w3.org/2000/svg" viewBox="0 0 400 400">
  <defs>
    <style>
      .cls-1 {
        fill: #eee;
      }
    </style>
  </defs>
  <path class="cls-1" d="M275,243.75a44.6,44.6,0,0,1-60.92,0A35.7,35.7,0,0,1,203,216.15a36.31,36.31,0,0,1,13.19-25.72,44.72,44.72,0,0,1,56.73,0,36.38,36.38,0,0,1,13.19,25.71A35.77,35.77,0,0,1,275,243.75Z"/>
  <path class="cls-1" d="M349.43,215.06a91.32,91.32,0,0,0-13-35.64,99.41,99.41,0,0,0-23.76-26.19h0L216.53,79.39c-.09-.06-.16-.14-.25-.19-6.31-4.85-16.92-4.83-23.85,0s-7.82,13-1.58,18.14h0L230.93,130l-122.23.13h-.16c-10.1,0-19.82,6.64-21.74,15-2,8.53,4.89,15.61,15.39,15.65h0l61.95-.12L53.58,245.57c-.14.1-.29.21-.42.32-10.43,8-13.8,21.26-7.24,29.66s20.84,8.56,31.38.05l60.34-49.38a95.23,95.23,0,0,0-.81,10.67,76.37,76.37,0,0,0,3.27,17.92,94.6,94.6,0,0,0,20.42,35.36,105.54,105.54,0,0,0,35.74,25.67,116.87,116.87,0,0,0,93.84-.16,106.21,106.21,0,0,0,35.71-25.77,95.36,95.36,0,0,0,20.42-35.43,88.9,88.9,0,0,0,3.2-39.42ZM194.5,259.37a57.91,57.91,0,0,1-13.29-20.8,54.09,54.09,0,0,1-3.05-23.25,55,55,0,0,1,6.66-21.88,60.42,60.42,0,0,1,14.79-17.58,70.27,70.27,0,0,1,87.13-.13,60,60,0,0,1,14.77,17.53,54.91,54.91,0,0,1,6.69,21.87,54,54,0,0,1-3.06,23.23,58.16,58.16,0,0,1-13.28,20.85c-12.43,12.67-29.83,19.85-48.67,19.89S206.93,272,194.5,259.37Z"/>
</svg>
