<svg id="Ebene_1" data-name="Ebene 1" xmlns="http://www.w3.org/2000/svg" viewBox="0 0 400 400">
  <defs>
    <style>
      .cls-1 {
        fill: #fff;
      }

      .cls-2 {
        fill: #eee;
      }

      .cls-3 {
        fill: none;
      }
    </style>
  </defs>
  <g>
    <path class="cls-1" d="M286.11,216.14A35.77,35.77,0,0,1,275,243.75a44.6,44.6,0,0,1-60.92,0A35.69,35.69,0,0,1,203,216.15a36.32,36.32,0,0,1,13.19-25.72,44.71,44.71,0,0,1,56.73,0A36.35,36.35,0,0,1,286.11,216.14Z"/>
    <path class="cls-1" d="M325.53,214.33c-1.13-20-10.93-37.61-25.7-50.1a87.15,87.15,0,0,0-110.57,0c-14.78,12.49-24.57,30.12-25.69,50.12-1.14,20.54,7.1,39.63,21.61,53.79,14.77,14.4,35.83,23.44,59.37,23.44s44.57-9,59.35-23.44C318.39,254,326.65,234.89,325.53,214.33Zm-20.39,24a58.16,58.16,0,0,1-13.28,20.85c-12.43,12.67-29.83,19.85-48.67,19.89S206.93,272,194.5,259.37a57.92,57.92,0,0,1-13.29-20.8,54.08,54.08,0,0,1-3.05-23.25,54.92,54.92,0,0,1,6.66-21.88,60.22,60.22,0,0,1,14.79-17.58,70.27,70.27,0,0,1,87.13-.13,60,60,0,0,1,14.77,17.53,54.81,54.81,0,0,1,6.69,21.87A54,54,0,0,1,305.14,238.36Z"/>
  </g>
  <path class="cls-2" d="M275,243.75a44.6,44.6,0,0,1-60.92,0A35.69,35.69,0,0,1,203,216.15a36.32,36.32,0,0,1,13.19-25.72,44.71,44.71,0,0,1,56.73,0,36.35,36.35,0,0,1,13.19,25.71A35.77,35.77,0,0,1,275,243.75Z"/>
  <path class="cls-2" d="M349.43,215.06a91.18,91.18,0,0,0-13-35.64,99.59,99.59,0,0,0-23.76-26.19l0,0L216.53,79.39c-.09-.06-.16-.14-.25-.19-6.31-4.85-16.92-4.83-23.85,0s-7.82,13-1.58,18.14l0,0L230.93,130l-122.23.13h-.16c-10.1,0-19.82,6.64-21.74,15-2,8.53,4.89,15.61,15.39,15.65v0l61.95-.12L53.58,245.57c-.14.1-.29.21-.42.32-10.43,8-13.8,21.26-7.24,29.66s20.84,8.56,31.38.05l60.34-49.38a94.54,94.54,0,0,0-.81,10.67,76,76,0,0,0,3.27,17.92,94.59,94.59,0,0,0,20.42,35.36,105.48,105.48,0,0,0,35.74,25.67,116.89,116.89,0,0,0,93.84-.16,106.24,106.24,0,0,0,35.71-25.77,95.39,95.39,0,0,0,20.42-35.43,88.9,88.9,0,0,0,3.2-39.42ZM194.5,259.37a57.92,57.92,0,0,1-13.29-20.8,54.08,54.08,0,0,1-3.05-23.25,54.92,54.92,0,0,1,6.66-21.88,60.22,60.22,0,0,1,14.79-17.58,70.27,70.27,0,0,1,87.13-.13,60,60,0,0,1,14.77,17.53,54.81,54.81,0,0,1,6.69,21.87,54,54,0,0,1-3.06,23.23,58.16,58.16,0,0,1-13.28,20.85c-12.43,12.67-29.83,19.85-48.67,19.89S206.93,272,194.5,259.37Z"/>
  <path class="cls-3" d="M214.09,243.75A35.69,35.69,0,0,1,203,216.15a36.32,36.32,0,0,1,13.19-25.72,44.71,44.71,0,0,1,56.73,0,36.35,36.35,0,0,1,13.19,25.71A35.77,35.77,0,0,1,275,243.75a44.6,44.6,0,0,1-60.92,0Z"/>
  <path class="cls-3" d="M0,0V400H400V0ZM178.16,215.32a54.92,54.92,0,0,1,6.66-21.88,60.22,60.22,0,0,1,14.79-17.58,70.27,70.27,0,0,1,87.13-.13,60,60,0,0,1,14.77,17.53,54.81,54.81,0,0,1,6.69,21.87,54,54,0,0,1-3.06,23.23,58.16,58.16,0,0,1-13.28,20.85c-12.43,12.67-29.83,19.85-48.67,19.89S206.93,272,194.5,259.37a57.92,57.92,0,0,1-13.29-20.8A54.08,54.08,0,0,1,178.16,215.32Z"/>
</svg>
