<svg id="Ebene_1" data-name="Ebene 1" xmlns="http://www.w3.org/2000/svg" viewBox="0 0 400 400">
  <defs>
    <style>
      .cls-1 {
        fill: #eee;
      }

      .cls-2 {
        fill: none;
      }
    </style>
  </defs>
  <path class="cls-1" d="M200,74.11A125.89,125.89,0,1,0,325.89,200,126,126,0,0,0,200,74.11Zm0,11A114.94,114.94,0,1,1,85.06,200,114.85,114.85,0,0,1,200,85.06ZM200,107c-21.13,0-38.31,16.25-38.31,36.21,0,19.41,18,41.42,34.79,55.56a5.5,5.5,0,0,0,7,0c16.82-14.14,34.79-36.14,34.79-55.55C238.31,123.2,221.12,107,200,107ZM147.62,200c-8.57.23-16.54,1.86-22.91,5.5a35.1,35.1,0,0,0-16.49,21.61,39.66,39.66,0,0,0,37.71,49.47,35.08,35.08,0,0,0,17.45-4.6c17-9.73,27.19-36.34,31.06-58a5.46,5.46,0,0,0-3.53-6.11C177.87,203.21,161.9,199.67,147.62,200Zm104.77,0c-14.28-.37-30.25,3.17-43.29,7.86a5.48,5.48,0,0,0-3.54,6.11c3.87,21.67,14.06,48.3,31.06,58a35.05,35.05,0,0,0,17.45,4.6,39.66,39.66,0,0,0,37.72-49.47,35.11,35.11,0,0,0-16.5-21.61C268.92,201.9,261,200.27,252.39,200Z"/>
  <rect class="cls-2" width="400" height="400"/>
</svg>
