<svg id="Ebene_1" data-name="Ebene 1" xmlns="http://www.w3.org/2000/svg" viewBox="0 0 400 400">
  <defs>
    <style>
      .cls-1 {
        fill: #eee;
      }

      .cls-2 {
        fill: none;
      }
    </style>
  </defs>
  <g>
    <path class="cls-1" d="M165.84,128.29c-32.87-6-58.86.28-69.22,18.22-7.73,13.39-5.52,31.14,5.36,50.12a3.37,3.37,0,0,0,5.92-3.23l-.08-.13c-9.8-17.09-11.7-32.41-5.36-43.39,8.6-14.9,31.78-20.49,62.17-15a3.37,3.37,0,0,0,1.21-6.63Zm-46.77,91.4c13.29,14.61,30.56,28.31,50.26,39.68C217,286.9,267.78,294.26,292.8,277.2a3.38,3.38,0,0,0-3.71-5.64l-.09.07c-22.4,15.27-70.62,8.28-116.3-18.1-19.11-11-35.83-24.3-48.64-38.38a3.37,3.37,0,0,0-5,4.52Z"/>
    <path class="cls-1" d="M284.81,215.59c21.53-25.43,29-51,18.71-68.91-7.61-13.17-23.69-20.13-45.06-20.41a3.37,3.37,0,0,0-.09,6.74c19.22.26,33.08,6.25,39.31,17,8.58,14.88,1.88,37.68-18,61.19a3.37,3.37,0,1,0,5.09,4.41ZM229.5,129.41c-19.47,4.17-40.18,12.33-60.08,23.81-49.22,28.42-81.33,70.33-76.87,100.72a3.37,3.37,0,0,0,6.68-.9s0-.06,0-.08c-4-27,26.48-66.71,73.58-93.9,19.29-11.14,39.35-19,58.11-23.06a3.37,3.37,0,0,0-1.31-6.61l-.1,0Z"/>
    <path class="cls-1" d="M149.75,275c11.25,31.43,29.66,50.78,50.37,50.78,15.1,0,29.07-10.3,40-28.42a3.37,3.37,0,0,0-5.73-3.55.56.56,0,0,0,0,.08C224.51,310.18,212.49,319,200.12,319c-17.2,0-33.62-17.26-44-46.31a3.37,3.37,0,0,0-6.39,2.14c0,.05,0,.09.05.13Zm102.79-6.14c5.83-18.62,9-40.1,9-62.48,0-55.84-19.55-104-47.39-116.35a3.37,3.37,0,0,0-2.73,6.16c24.83,11,43.38,56.72,43.38,110.19,0,21.71-3,42.51-8.65,60.46a3.37,3.37,0,0,0,6.41,2.11l0-.09ZM316,265.55a16.14,16.14,0,1,0-16.13,16.14A16.13,16.13,0,0,0,316,265.55Zm-6.74,0a9.39,9.39,0,1,1-9.39-9.39A9.39,9.39,0,0,1,309.29,265.55ZM100.1,281.69A16.14,16.14,0,1,0,84,265.55,16.14,16.14,0,0,0,100.1,281.69Zm0-6.74a9.4,9.4,0,1,1,9.39-9.4A9.39,9.39,0,0,1,100.1,275Z"/>
    <path class="cls-1" d="M200.12,106.49A16.14,16.14,0,1,0,184,90.36,16.13,16.13,0,0,0,200.12,106.49Zm0-6.74a9.4,9.4,0,1,1,9.39-9.39A9.4,9.4,0,0,1,200.12,99.75Zm2.46,118a11.67,11.67,0,1,1,8.95-13.87A11.67,11.67,0,0,1,202.58,217.79Z"/>
  </g>
  <rect class="cls-2" width="400" height="400"/>
</svg>
