<svg xmlns="http://www.w3.org/2000/svg" viewBox="0 0 400 400">
  <defs>
    <style>
      .cls-1 {
        fill: #eee;
      }

      .cls-2 {
        fill: #fcfcfc;
      }
    </style>
  </defs>
  <g id="first">
    <path class="cls-1" d="M148.65,124.63s-38.2,41.11-38.2,113.67c0,60.89,23.91,87.07,45.83,87.07,10.19,0,43.28-7.26,76.39-62.88,38.24-64.28,33.1-94.32,33.1-94.32Z"/>
  </g>
  <g id="second">
    <path class="cls-2" d="M241.5,117.65a86.52,86.52,0,0,0-18.83,1.9c6.72-11,18.08-26.57,29.19-34a6,6,0,0,0,1.84-9.17,6,6,0,0,0-8.45-.76C232,84.44,219,102.2,211.5,114.89c-8.78-15.06-17.71-22.34-40.15-22.34-46.25,0-60.9,33.85-60.9,43.74,0,3.44,6.43,6.46,21.85,6.46s34.94-4.18,34.94-4.18c-2.94,5.65-4.37,12.55-4.37,20.92,0,20.91,13.11,37.65,30.58,37.65,26.21,0,39.31-29.28,39.31-29.28s30.58,33.46,41.37,33.46c10.28,0,15.42-14.83,15.42-34.61C289.55,151.87,277.47,117.65,241.5,117.65Z"/>
    <path class="cls-2" d="M142.48,189.17a6,6,0,0,0-7.89,3.13c-6,19.81-8.08,38.69-6.19,56.1a6,6,0,0,0,5.93,5.33l.67,0a6,6,0,0,0,5.25-6.58c-1.72-15.81.22-33.09,5.75-51.36A6,6,0,0,0,142.48,189.17Z"/>
  </g>
</svg>
