<svg id="Ebene_1" data-name="Ebene 1" xmlns="http://www.w3.org/2000/svg" xmlns:xlink="http://www.w3.org/1999/xlink" viewBox="0 0 400 400">
  <defs>
    <style>
      .cls-1 {
        fill: #eee;
      }

      .cls-2 {
        fill: #ccc;
      }

      .cls-3 {
        fill: #fcfcfc;
      }

      .cls-4 {
        clip-path: url(#clip-path);
      }

      .cls-5 {
        clip-path: url(#clip-path-2);
      }

      .cls-6 {
        fill: none;
      }
    </style>
    <clipPath id="clip-path">
      <path class="cls-1" d="M254.75,688.91c-4.5,0-6.3-2.7-6.3-2.7-.3-1.2-.6-19.05-.75-36.75-.15-18.46,0-36.76.9-36.91,5.25-9.75,21.75-29.4,21.75-29.4-30.9,6.15-47.7,26.4-47.7,26.4-5-3.9-15.15-3.3-15.15-3.3,4.8,2.55,9.45,10.2,9.45,16.5v62.11S206.6,694,198.65,694a11.4,11.4,0,0,1-9.3-4.65,13.56,13.56,0,0,1-1.5-2.7V610a6.71,6.71,0,0,1-3.75,1.35c-1.65,0-3.45-.9-4.65-3.3-.9-1.95-1.5-4.65-1.5-8.85,0-14.1,16.05-23.55,16.05-23.55-20.25,5.4-39.15,15.9-64.2,44.7s-20.26,52.51-20.26,52.51,6.75-16.5,23.41-33.76c8-8.1,13.8-10.8,17.85-11a6.21,6.21,0,0,1,6.6,6.3v58.36c0,5.7-3.75,7.05-7.2,6.9a17.43,17.43,0,0,1-5.55-1.05c17.1,24.75,57.9,28.35,57.9,28.35l18-19.2.45.3,16.5,13.95c30-17.85,44.55-51,44.55-51-13.65,14.55-22.2,17.85-27.3,17.85"/>
    </clipPath>
    <clipPath id="clip-path-2">
      <path class="cls-1" d="M200.15,531.4a117.64,117.64,0,0,1,84.3,35.25,120.95,120.95,0,0,1,0,170.11,118.44,118.44,0,0,1-168.61,0,121,121,0,0,1,0-170.11,117.43,117.43,0,0,1,84.31-35.25m0-5.55c-69,0-124.81,56.25-124.81,125.71S131.15,777.26,200,777.26,324.66,721,324.66,651.56,269,525.85,200.15,525.85"/>
    </clipPath>
  </defs>
  <g>
    <path class="cls-1" d="M148.65,124.63s-38.2,41.11-38.2,113.67c0,60.89,23.91,87.07,45.83,87.07,10.19,0,43.28-7.26,76.39-62.88,38.24-64.28,33.1-94.32,33.1-94.32Z"/>
    <path class="cls-2" d="M241.5,117.65c-17.48,0-26.21,4.18-26.21,4.18C205,102.06,197,92.55,171.35,92.55c-46.25,0-60.9,33.85-60.9,43.74,0,3.44,6.43,6.46,21.85,6.46s34.94-4.18,34.94-4.18c-2.94,5.65-4.37,12.55-4.37,20.92,0,20.91,13.11,37.65,30.58,37.65,26.21,0,39.31-29.28,39.31-29.28s30.58,33.46,41.37,33.46c10.28,0,15.42-14.83,15.42-34.61C289.55,151.87,277.47,117.65,241.5,117.65Z"/>
    <path class="cls-2" d="M211.94,132.8a6,6,0,0,1-5.46-8.38c4.83-11,21.67-37.39,38.77-48.78a6,6,0,1,1,6.61,9.93c-15.16,10.11-30.79,35.33-34.45,43.66A6,6,0,0,1,211.94,132.8Z"/>
    <path class="cls-3" d="M134.33,253.73a6,6,0,0,1-5.93-5.33c-1.89-17.41.19-36.29,6.19-56.1A6,6,0,0,1,146,195.76c-5.53,18.27-7.47,35.55-5.75,51.36A6,6,0,0,1,135,253.7Z"/>
  </g>
  <g>
    <g>
      <path class="cls-1" d="M254.75,688.91c-4.5,0-6.3-2.7-6.3-2.7-.3-1.2-.6-19.05-.75-36.75-.15-18.46,0-36.76.9-36.91,5.25-9.75,21.75-29.4,21.75-29.4-30.9,6.15-47.7,26.4-47.7,26.4-5-3.9-15.15-3.3-15.15-3.3,4.8,2.55,9.45,10.2,9.45,16.5v62.11S206.6,694,198.65,694a11.4,11.4,0,0,1-9.3-4.65,13.56,13.56,0,0,1-1.5-2.7V610a6.71,6.71,0,0,1-3.75,1.35c-1.65,0-3.45-.9-4.65-3.3-.9-1.95-1.5-4.65-1.5-8.85,0-14.1,16.05-23.55,16.05-23.55-20.25,5.4-39.15,15.9-64.2,44.7s-20.26,52.51-20.26,52.51,6.75-16.5,23.41-33.76c8-8.1,13.8-10.8,17.85-11a6.21,6.21,0,0,1,6.6,6.3v58.36c0,5.7-3.75,7.05-7.2,6.9a17.43,17.43,0,0,1-5.55-1.05c17.1,24.75,57.9,28.35,57.9,28.35l18-19.2.45.3,16.5,13.95c30-17.85,44.55-51,44.55-51-13.65,14.55-22.2,17.85-27.3,17.85"/>
      <g class="cls-4">
        <rect class="cls-1" x="-43.46" y="381.84" width="1058.46" height="705.64"/>
      </g>
    </g>
    <g>
      <path class="cls-1" d="M200.15,531.4a117.64,117.64,0,0,1,84.3,35.25,120.95,120.95,0,0,1,0,170.11,118.44,118.44,0,0,1-168.61,0,121,121,0,0,1,0-170.11,117.43,117.43,0,0,1,84.31-35.25m0-5.55c-69,0-124.81,56.25-124.81,125.71S131.15,777.26,200,777.26,324.66,721,324.66,651.56,269,525.85,200.15,525.85"/>
      <g class="cls-5">
        <rect class="cls-1" x="-43.46" y="381.84" width="1058.46" height="705.64"/>
      </g>
    </g>
  </g>
  <rect class="cls-6" width="400" height="400"/>
</svg>
