<svg id="Ebene_1" data-name="Ebene 1" xmlns="http://www.w3.org/2000/svg" viewBox="0 0 400 400">
  <defs>
    <style>
      .cls-1, .cls-2 {
        fill: #eee;
      }

      .cls-1 {
        fill-rule: evenodd;
      }
    </style>
  </defs>
  <path class="cls-1" d="M97.74,204.34a4.12,4.12,0,0,0-2.07-3.6L61.37,181a4.08,4.08,0,0,0-1.89-.54h-.36a4.21,4.21,0,0,0-1.89.54L22.92,200.74a4.19,4.19,0,0,0-2.07,3.61l.07,53.16A2,2,0,0,0,24,259.3l20.4-11.68a4.18,4.18,0,0,0,2.1-3.62V219.19a4.15,4.15,0,0,1,2.07-3.59l8.68-5a4.09,4.09,0,0,1,4.14,0l8.67,5a4.14,4.14,0,0,1,2.08,3.59V244a4.18,4.18,0,0,0,2.07,3.6l20.39,11.67a2,2,0,0,0,2.07,0,2.06,2.06,0,0,0,1-1.79ZM259.63,232a1,1,0,0,1-.52.9l-11.78,6.79a1,1,0,0,1-1,0l-11.78-6.79a1,1,0,0,1-.52-.9V218.4a1,1,0,0,1,.51-.9l11.78-6.8a1,1,0,0,1,1,0l11.79,6.8a1,1,0,0,1,.51.9Zm3.18-100.76a2.1,2.1,0,0,0-2.06,0,2.06,2.06,0,0,0-1,1.79v52.64a1.46,1.46,0,0,1-1.47,1.45,1.48,1.48,0,0,1-.71-.19L249,182a4.14,4.14,0,0,0-4.14,0l-34.32,19.8a4.13,4.13,0,0,0-2.07,3.58V245a4.15,4.15,0,0,0,2.07,3.59l34.32,19.82a4.21,4.21,0,0,0,4.15,0l34.31-19.83A4.18,4.18,0,0,0,285.4,245V146.28a4.15,4.15,0,0,0-2.13-3.62ZM377.09,218a4.12,4.12,0,0,0,2.06-3.58v-9.6a4.14,4.14,0,0,0-2.06-3.59L343,181.5a4.13,4.13,0,0,0-4.16,0l-34.31,19.8a4.15,4.15,0,0,0-2.07,3.59V244.5a4.15,4.15,0,0,0,2.09,3.6l34.09,19.43a4.15,4.15,0,0,0,4.07,0l20.62-11.46a2.07,2.07,0,0,0,0-3.61l-34.52-19.81a2.06,2.06,0,0,1-1-1.79v-12.4a2.06,2.06,0,0,1,1-1.79l10.74-6.2a2.05,2.05,0,0,1,2.06,0l10.75,6.2a2.06,2.06,0,0,1,1,1.79v9.77a2,2,0,0,0,3.08,1.8Z"/>
  <path class="cls-1" d="M340.41,216.21a.8.8,0,0,1,.79,0l6.59,3.8a.81.81,0,0,1,.39.69v7.6a.81.81,0,0,1-.39.69l-6.59,3.8a.8.8,0,0,1-.79,0l-6.58-3.8a.79.79,0,0,1-.41-.69v-7.6a.78.78,0,0,1,.4-.69Z"/>
  <path class="cls-2" d="M151,181.7l-34.12,19.69a4.13,4.13,0,0,0-2.07,3.57v39.42a4.13,4.13,0,0,0,2.07,3.57L151,267.66a4.15,4.15,0,0,0,4.12,0L189.27,248a4.12,4.12,0,0,0,2.06-3.57V205a4.12,4.12,0,0,0-2.06-3.57L155.15,181.7a4.17,4.17,0,0,0-4.13,0"/>
</svg>
