<svg id="Ebene_1" data-name="Ebene 1" xmlns="http://www.w3.org/2000/svg" xmlns:xlink="http://www.w3.org/1999/xlink" viewBox="0 0 400 400">
  <defs>
    <style>
      .cls-1 {
        fill: none;
      }

      .cls-2 {
        fill: #eee;
        fill-rule: evenodd;
      }

      .cls-3 {
        clip-path: url(#clip-path);
      }

      .cls-4 {
        fill: url(#Unbenannter_Verlauf_25);
      }

      .cls-5 {
        clip-path: url(#clip-path-2);
      }

      .cls-6 {
        fill: url(#Unbenannter_Verlauf_24);
      }

      .cls-7 {
        clip-path: url(#clip-path-3);
      }

      .cls-8 {
        fill: url(#Unbenannter_Verlauf_23);
      }
    </style>
    <clipPath id="clip-path">
      <path class="cls-1" d="M151,181.7l-34.12,19.69a4.13,4.13,0,0,0-2.07,3.57v39.42a4.13,4.13,0,0,0,2.07,3.57L151,267.66a4.15,4.15,0,0,0,4.12,0L189.27,248a4.12,4.12,0,0,0,2.06-3.57V205a4.12,4.12,0,0,0-2.06-3.57L155.15,181.7a4.15,4.15,0,0,0-4.13,0"/>
    </clipPath>
    <linearGradient id="Unbenannter_Verlauf_25" data-name="Unbenannter Verlauf 25" x1="-2366.36" y1="419.13" x2="-2365.39" y2="419.13" gradientTransform="matrix(-50.75, 103.54, 103.54, 50.75, -163317.01, 223905.85)" gradientUnits="userSpaceOnUse">
      <stop offset="0.3" stop-color="#eee"/>
      <stop offset="0.5" stop-color="#f0f0f0"/>
      <stop offset="0.8" stop-color="#bcbcbc"/>
    </linearGradient>
    <clipPath id="clip-path-2">
      <path class="cls-1" d="M115.69,246.88A4.15,4.15,0,0,0,116.9,248l29.28,16.91,4.87,2.8a4.16,4.16,0,0,0,2.38.54,4.61,4.61,0,0,0,.81-.15l36-65.9a4.18,4.18,0,0,0-1-.76l-22.34-12.9-11.82-6.8a4.45,4.45,0,0,0-1.06-.43Z"/>
    </clipPath>
    <linearGradient id="Unbenannter_Verlauf_24" data-name="Unbenannter Verlauf 24" x1="-2348.18" y1="392.99" x2="-2347.55" y2="392.99" gradientTransform="matrix(142.41, -105.22, -105.22, -142.41, 375857.52, -190857.25)" gradientUnits="userSpaceOnUse">
      <stop offset="0.57" stop-color="#eee"/>
      <stop offset="0.72" stop-color="#f1f1f1"/>
      <stop offset="1" stop-color="#c2c2c2"/>
    </linearGradient>
    <clipPath id="clip-path-3">
      <path class="cls-1" d="M152.68,181.17a4,4,0,0,0-1.65.53l-34,19.63,36.69,66.83a4.07,4.07,0,0,0,1.47-.5L189.28,248a4.14,4.14,0,0,0,2-2.82l-37.41-63.9a4.58,4.58,0,0,0-.83-.08l-.34,0"/>
    </clipPath>
    <linearGradient id="Unbenannter_Verlauf_23" data-name="Unbenannter Verlauf 23" x1="-2340.23" y1="400.47" x2="-2339.66" y2="400.47" gradientTransform="matrix(129.89, 0, 0, -129.89, 304087.57, 52240.71)" gradientUnits="userSpaceOnUse">
      <stop offset="0.16" stop-color="#c5c5c5"/>
      <stop offset="0.38" stop-color="#c5c5c5"/>
      <stop offset="0.47" stop-color="#c2c2c2"/>
      <stop offset="0.7" stop-color="#bababa"/>
      <stop offset="0.9" stop-color="#eee"/>
    </linearGradient>
  </defs>
  <g>
    <path class="cls-2" d="M97.74,204.34a4.13,4.13,0,0,0-2.07-3.6L61.37,181a4.08,4.08,0,0,0-1.89-.54h-.36a4.15,4.15,0,0,0-1.89.54L22.92,200.74a4.2,4.2,0,0,0-2.07,3.61l.07,53.16a2,2,0,0,0,1,1.79,2,2,0,0,0,2.06,0l20.4-11.68A4.19,4.19,0,0,0,46.48,244V219.19a4.13,4.13,0,0,1,2.07-3.59l8.68-5a4.11,4.11,0,0,1,4.14,0l8.67,5a4.13,4.13,0,0,1,2.08,3.59V244a4.19,4.19,0,0,0,2.07,3.6l20.39,11.67a2,2,0,0,0,2.07,0,2.07,2.07,0,0,0,1-1.79ZM259.63,232a1,1,0,0,1-.52.9l-11.78,6.79a1,1,0,0,1-1,0l-11.78-6.79a1,1,0,0,1-.52-.9v-13.6a1,1,0,0,1,.51-.9l11.78-6.8a1,1,0,0,1,1,0l11.79,6.8a1,1,0,0,1,.51.9Zm3.18-100.76a2.1,2.1,0,0,0-2.06,0,2.07,2.07,0,0,0-1,1.79v52.64a1.46,1.46,0,0,1-2.18,1.26L249,182a4.14,4.14,0,0,0-4.14,0l-34.32,19.8a4.14,4.14,0,0,0-2.07,3.58V245a4.16,4.16,0,0,0,2.07,3.59l34.32,19.82a4.21,4.21,0,0,0,4.15,0l34.31-19.83a4.17,4.17,0,0,0,2.08-3.59V146.28a4.15,4.15,0,0,0-2.13-3.62Zm114.28,86.8a4.14,4.14,0,0,0,2.06-3.58v-9.6a4.15,4.15,0,0,0-2.06-3.59L343,181.5a4.13,4.13,0,0,0-4.16,0l-34.31,19.8a4.16,4.16,0,0,0-2.07,3.59V244.5a4.15,4.15,0,0,0,2.09,3.6l34.09,19.43a4.15,4.15,0,0,0,4.07,0l20.62-11.46a2.07,2.07,0,0,0,0-3.61l-34.52-19.81a2.06,2.06,0,0,1-1-1.79V218.46a2.05,2.05,0,0,1,1-1.79l10.74-6.2a2.05,2.05,0,0,1,2.06,0l10.75,6.2a2.06,2.06,0,0,1,1,1.79v9.77a2.09,2.09,0,0,0,1,1.8,2.11,2.11,0,0,0,2.08,0Z"/>
    <path class="cls-2" d="M340.41,216.21a.8.8,0,0,1,.79,0l6.59,3.8a.79.79,0,0,1,.39.69v7.6a.79.79,0,0,1-.39.69l-6.59,3.8a.8.8,0,0,1-.79,0l-6.58-3.8a.79.79,0,0,1-.41-.69v-7.6a.78.78,0,0,1,.4-.69Z"/>
    <g class="cls-3">
      <path class="cls-4" d="M225.81,198.05l-96.15-47.13L80.36,251.49l96.15,47.14Z"/>
    </g>
    <g class="cls-5">
      <path class="cls-6" d="M74.12,212,142,303.88l89.79-66.34-67.9-91.89Z"/>
    </g>
    <g class="cls-7">
      <path class="cls-8" d="M117,181.15v87h74.26v-87Z"/>
    </g>
  </g>
  <rect class="cls-1" width="400" height="400"/>
</svg>
