<svg id="Ebene_1" data-name="Ebene 1" xmlns="http://www.w3.org/2000/svg" viewBox="0 0 400 400">
  <defs>
    <style>
      .cls-1 {
        fill: #eee;
      }
    </style>
  </defs>
  <path class="cls-1" d="M200.39,64.11A135.89,135.89,0,1,0,336.28,200,135.89,135.89,0,0,0,200.39,64.11Zm90,119.91a57.9,57.9,0,0,0-83.89,34A60.46,60.46,0,0,0,211,262.86c-9.79,17-27.48,29.07-46.69,32.72-14.76,3.1-30.29.7-44-5.51,12.3,3.59,25.66,4.22,37.88-.13a58.34,58.34,0,0,0,35.91-34.84c6.61-17.69,4.1-38.72-7-53.9a58.42,58.42,0,0,0-35.64-23.39c-4.52-.8-9.07-1.17-13.63-1.58-7.25-14.62-9.91-31.58-6.26-47.45l-.23-.14c4.18-20.16,17.84-38.34,36.21-47.45-3.19,3.25-7.06,5.73-10,9.26a57.81,57.81,0,0,0-14.23,49.35c4.21,26.53,29.15,48.2,56.17,47.83,21,.93,41.38-11.13,51.63-29.31,21.94.75,43.27,12.07,55.8,30.25,6.41,9.49,11.42,20.62,11.76,32.19A59.57,59.57,0,0,0,290.43,184Z"/>
</svg>
