<svg id="Ebene_1" data-name="Ebene 1" xmlns="http://www.w3.org/2000/svg" viewBox="0 0 400 400">
  <defs>
    <style>
      .cls-1 {
        fill: #eee;
      }
    </style>
  </defs>
  <path class="cls-1" d="M200,63.52A136.48,136.48,0,1,0,336.48,200,136.47,136.47,0,0,0,200,63.52ZM290.43,184a58.14,58.14,0,0,0-84.25,34.2,60.71,60.71,0,0,0,4.49,45c-9.83,17-27.6,29.2-46.89,32.86-14.83,3.12-30.42.71-44.22-5.52,12.35,3.6,25.77,4.23,38.05-.14a58.57,58.57,0,0,0,36.06-35c6.63-17.77,4.12-38.89-7-54.14a58.65,58.65,0,0,0-35.8-23.48c-4.54-.81-9.11-1.18-13.69-1.6-7.28-14.67-9.95-31.72-6.29-47.65l-.22-.14c4.19-20.25,17.91-38.51,36.37-47.66-3.21,3.26-7.1,5.76-10.07,9.31a58.08,58.08,0,0,0-14.3,49.56c4.24,26.64,29.28,48.41,56.43,48,21,.94,41.55-11.17,51.84-29.43,22,.75,43.47,12.12,56.05,30.38,6.44,9.54,11.47,20.71,11.81,32.33A59.82,59.82,0,0,0,290.43,184Z"/>
</svg>
