<svg id="Ebene_1" data-name="Ebene 1" xmlns="http://www.w3.org/2000/svg" viewBox="0 0 400 400">
  <defs>
    <style>
      .cls-1 {
        fill: #eee;
      }
    </style>
  </defs>
  <path class="cls-1" d="M192.9,123a56.19,56.19,0,1,0,56.22,56.19A56.19,56.19,0,0,0,192.9,123Zm.07,95.55a39.43,39.43,0,1,1,39.45-39.43A39.43,39.43,0,0,1,193,218.55Z"/>
  <path class="cls-1" d="M275.68,243.24s22.22-23.46,22.22-64.66S266,74.36,193.62,74.36,87.9,134.42,87.9,181.73s.39,143.52.39,143.52h61.54V274.39a103.9,103.9,0,0,0,43.4,9.85c24.42,0,32-5.52,32-5.52l39.59,46.92,47.33-40.35Zm-80.35,26.28c-42.83,0-60.09-20.76-60.09-20.76v61H102.49s.14-79.51.14-132.87,46.19-88.19,90.6-88.19,90.34,35.68,90.34,89.77-45.41,91-88.24,91Z"/>
</svg>
