<svg id="Ebene_1" data-name="Ebene 1" xmlns="http://www.w3.org/2000/svg" xmlns:xlink="http://www.w3.org/1999/xlink" viewBox="0 0 400 400">
  <defs>
    <style>
      .cls-1 {
        fill: #eee;
      }

      .cls-2 {
        clip-path: url(#clip-path);
      }

      .cls-3 {
        clip-path: url(#clip-path-2);
      }

      .cls-4 {
        fill: none;
      }
    </style>
    <clipPath id="clip-path">
      <path class="cls-1" d="M-206.58,237.35c-4.5,0-6.3-2.7-6.3-2.7-.3-1.2-.6-19.05-.75-36.75-.15-18.45,0-36.75.9-36.9,5.25-9.75,21.75-29.4,21.75-29.4-30.9,6.15-47.7,26.4-47.7,26.4-4.95-3.9-15.15-3.3-15.15-3.3,4.8,2.55,9.45,10.2,9.45,16.5v62.1s-10.35,9.15-18.3,9.15a11.4,11.4,0,0,1-9.3-4.65,13.56,13.56,0,0,1-1.5-2.7V158.45a6.71,6.71,0,0,1-3.75,1.35c-1.65,0-3.45-.9-4.65-3.3-.9-1.95-1.5-4.65-1.5-8.85,0-14.1,16.05-23.55,16.05-23.55-20.26,5.4-39.16,15.9-64.21,44.7s-20.25,52.5-20.25,52.5,6.75-16.5,23.4-33.75c7.95-8.1,13.8-10.8,17.85-11a6.21,6.21,0,0,1,6.6,6.3v58.35c0,5.7-3.75,7.05-7.2,6.9a17.43,17.43,0,0,1-5.55-1.05c17.1,24.75,57.91,28.35,57.91,28.35l18-19.2.45.3,16.5,13.95c30-17.85,44.55-51,44.55-51-13.65,14.55-22.2,17.85-27.3,17.85"/>
    </clipPath>
    <clipPath id="clip-path-2">
      <path class="cls-1" d="M-261.18,79.84a117.64,117.64,0,0,1,84.3,35.25,120.11,120.11,0,0,1,34.95,85.06,120.37,120.37,0,0,1-34.95,85.06,118.26,118.26,0,0,1-84.3,35.25,117.65,117.65,0,0,1-84.31-35.25,120.11,120.11,0,0,1-34.95-85.06,120.37,120.37,0,0,1,34.95-85.06,117.39,117.39,0,0,1,84.31-35.25m0-5.55C-330.19,74.29-386,130.55-386,200s55.8,125.71,124.66,125.71S-136.68,269.45-136.68,200c.15-69.45-55.65-125.71-124.5-125.71"/>
    </clipPath>
  </defs>
  <g>
    <g>
      <path class="cls-1" d="M-206.58,237.35c-4.5,0-6.3-2.7-6.3-2.7-.3-1.2-.6-19.05-.75-36.75-.15-18.45,0-36.75.9-36.9,5.25-9.75,21.75-29.4,21.75-29.4-30.9,6.15-47.7,26.4-47.7,26.4-4.95-3.9-15.15-3.3-15.15-3.3,4.8,2.55,9.45,10.2,9.45,16.5v62.1s-10.35,9.15-18.3,9.15a11.4,11.4,0,0,1-9.3-4.65,13.56,13.56,0,0,1-1.5-2.7V158.45a6.71,6.71,0,0,1-3.75,1.35c-1.65,0-3.45-.9-4.65-3.3-.9-1.95-1.5-4.65-1.5-8.85,0-14.1,16.05-23.55,16.05-23.55-20.26,5.4-39.16,15.9-64.21,44.7s-20.25,52.5-20.25,52.5,6.75-16.5,23.4-33.75c7.95-8.1,13.8-10.8,17.85-11a6.21,6.21,0,0,1,6.6,6.3v58.35c0,5.7-3.75,7.05-7.2,6.9a17.43,17.43,0,0,1-5.55-1.05c17.1,24.75,57.91,28.35,57.91,28.35l18-19.2.45.3,16.5,13.95c30-17.85,44.55-51,44.55-51-13.65,14.55-22.2,17.85-27.3,17.85"/>
      <g class="cls-2">
        <rect class="cls-1" x="-504.8" y="-69.72" width="1058.46" height="705.64"/>
      </g>
    </g>
    <g>
      <path class="cls-1" d="M-261.18,79.84a117.64,117.64,0,0,1,84.3,35.25,120.11,120.11,0,0,1,34.95,85.06,120.37,120.37,0,0,1-34.95,85.06,118.26,118.26,0,0,1-84.3,35.25,117.65,117.65,0,0,1-84.31-35.25,120.11,120.11,0,0,1-34.95-85.06,120.37,120.37,0,0,1,34.95-85.06,117.39,117.39,0,0,1,84.31-35.25m0-5.55C-330.19,74.29-386,130.55-386,200s55.8,125.71,124.66,125.71S-136.68,269.45-136.68,200c.15-69.45-55.65-125.71-124.5-125.71"/>
      <g class="cls-3">
        <rect class="cls-1" x="-504.8" y="-69.72" width="1058.46" height="705.64"/>
      </g>
    </g>
  </g>
  <g>
    <path class="cls-1" d="M192.9,123a56.19,56.19,0,1,0,56.22,56.19A56.21,56.21,0,0,0,192.9,123Zm.07,95.55a39.43,39.43,0,1,1,39.45-39.43A39.44,39.44,0,0,1,193,218.53Z"/>
    <path class="cls-1" d="M275.68,243.24s22.22-23.46,22.22-64.66S266,74.36,193.62,74.36,87.9,134.42,87.9,181.73s.39,143.52.39,143.52h61.54V274.39a103.87,103.87,0,0,0,43.4,9.85c24.42,0,32-5.52,32-5.52l39.59,46.92,47.33-40.35Zm-80.35,26.28c-42.83,0-60.09-20.76-60.09-20.76v61H102.49s.14-79.51.14-132.87,46.19-88.19,90.6-88.19,90.34,35.68,90.34,89.77S238.16,269.52,195.33,269.52Z"/>
  </g>
  <rect class="cls-4" width="400" height="400"/>
</svg>
