<svg id="Ebene_1" data-name="Ebene 1" xmlns="http://www.w3.org/2000/svg" viewBox="0 0 400 400">
  <defs>
    <style>
      .cls-1 {
        fill: #c6c6c6;
      }

      .cls-2 {
        fill: #eee;
      }

      .cls-3 {
        fill: none;
      }
    </style>
  </defs>
  <g id="layer1">
    <g id="g1894">
      <path id="path8615" class="cls-1" d="M199.09,75.48c-63.8,0-59.82,27.67-59.82,27.67l.07,28.67h60.89v8.61H115.16s-40.83-4.63-40.83,59.75S110,262.27,110,262.27h21.26V232.4s-1.14-35.64,35.07-35.64h60.39s33.93.55,33.93-32.79V108.84S265.77,75.48,199.09,75.48ZM165.52,94.76a11,11,0,1,1-11,11A10.94,10.94,0,0,1,165.52,94.76Z"/>
      <path id="path8620" class="cls-2" d="M200.91,325.52c63.8,0,59.82-27.67,59.82-27.67l-.07-28.67H199.77v-8.61h85.07s40.83,4.63,40.83-59.75S290,138.73,290,138.73H268.77V168.6s1.14,35.64-35.07,35.64H173.31s-33.93-.55-33.93,32.79v55.13S134.23,325.52,200.91,325.52Zm33.57-19.28a11,11,0,1,1,11-11A10.94,10.94,0,0,1,234.48,306.24Z"/>
    </g>
  </g>
  <rect class="cls-3" width="400" height="400"/>
</svg>
