<svg id="Ebene_1" data-name="Ebene 1" xmlns="http://www.w3.org/2000/svg" viewBox="0 0 254.84 257.65">
  <defs>
    <style>
      .cls-1 {
        fill: #eee;
      }
    </style>
  </defs>
  <path id="path1948" class="cls-1" d="M203.38,69.84A174.78,174.78,0,0,0,174,72.35c-26,4.59-30.73,14.21-30.73,32v23.43h61.46v7.81H120.21c-17.87,0-33.51,10.73-38.4,31.16-5.65,23.41-5.9,38,0,62.47,4.37,18.2,14.8,31.16,32.67,31.16h21.13V232.25c0-20.29,17.55-38.18,38.4-38.18h61.4c17.09,0,30.73-14.08,30.73-31.24V104.3c0-16.66-14-29.17-30.73-31.95A191.43,191.43,0,0,0,203.38,69.84ZM170.14,88.68a11.72,11.72,0,1,1-11.53,11.75A11.67,11.67,0,0,1,170.14,88.68Z" transform="translate(-77.48 -69.84)"/>
  <path id="path1950" class="cls-1" d="M273.81,135.54v27.29c0,21.16-17.94,39-38.4,39H174c-16.82,0-30.73,14.4-30.73,31.24v58.53c0,16.66,14.48,26.46,30.73,31.24,19.46,5.72,38.12,6.75,61.4,0,15.47-4.48,30.73-13.5,30.73-31.24V268.14h-61.4v-7.81h92.13c17.87,0,24.53-12.46,30.74-31.16,6.42-19.25,6.14-37.77,0-62.47-4.42-17.79-12.85-31.17-30.74-31.17ZM239.27,283.76a11.72,11.72,0,1,1-11.53,11.68A11.6,11.6,0,0,1,239.27,283.76Z" transform="translate(-77.48 -69.84)"/>
</svg>
