<svg id="Ebene_1" data-name="Ebene 1" xmlns="http://www.w3.org/2000/svg" viewBox="0 0 400 400">
  <defs>
    <style>
      .cls-1 {
        fill: #eee;
      }
    </style>
  </defs>
  <path id="path1948" class="cls-1" d="M198.41,70.16A173.35,173.35,0,0,0,169,72.67c-26,4.59-30.73,14.21-30.73,32V128.1h61.47v7.81H115.24c-17.87,0-33.51,10.73-38.4,31.16-5.65,23.41-5.9,38,0,62.47,4.37,18.2,14.8,31.16,32.67,31.16h21.13V232.57c0-20.29,17.55-38.18,38.41-38.18h61.39c17.09,0,30.74-14.08,30.74-31.24V104.62c0-16.66-14-29.17-30.73-31.95A190,190,0,0,0,198.41,70.16ZM165.17,89a11.72,11.72,0,1,1-11.52,11.9.76.76,0,0,0,0-.15A11.66,11.66,0,0,1,165.17,89Z"/>
  <path id="path1950" class="cls-1" d="M268.84,135.86v27.29c0,21.16-17.94,39-38.4,39H169c-16.82,0-30.73,14.4-30.73,31.24v58.53c0,16.66,14.48,26.46,30.73,31.24,19.46,5.72,38.12,6.75,61.4,0,15.47-4.48,30.73-13.5,30.73-31.24V268.46H199.77v-7.81H291.9c17.87,0,24.53-12.46,30.73-31.16,6.43-19.25,6.15-37.77,0-62.47-4.42-17.79-12.85-31.17-30.73-31.17ZM234.3,284.08A11.72,11.72,0,1,1,222.78,296c0-.07,0-.15,0-.22a11.6,11.6,0,0,1,11.52-11.68Z"/>
</svg>
