<?xml version="1.0" encoding="utf-8"?>
<!-- Generator: Adobe Illustrator 26.0.3, SVG Export Plug-In . SVG Version: 6.00 Build 0)  -->
<svg version="1.1" id="Ebene_1" xmlns="http://www.w3.org/2000/svg" xmlns:xlink="http://www.w3.org/1999/xlink" x="0px" y="0px"
	 viewBox="0 0 400 400" style="enable-background:new 0 0 400 400;" xml:space="preserve">
<style type="text/css">
	.st0{fill:#EEEEEE;}
</style>
<path id="path8615" class="st0" d="M199.1,75.5c-63.8,0-59.8,27.7-59.8,27.7l0.1,28.7h60.9v8.6h-85.1c0,0-40.8-4.6-40.8,59.8
	s35.7,62.1,35.7,62.1h21.3v-29.9c0,0-1.1-35.6,35.1-35.6h60.4c0,0,33.9,0.6,33.9-32.8v-55.1C260.6,108.8,265.8,75.5,199.1,75.5z
	 M165.5,94.8c6.1,0,11,4.9,11,11s-4.9,11-11,11s-11-4.9-11-11c0-6,4.8-11,10.9-11C165.4,94.8,165.5,94.8,165.5,94.8z"/>
<path id="path8620" class="st0" d="M200.9,325.5c63.8,0,59.8-27.7,59.8-27.7l-0.1-28.7h-60.9v-8.6h85.1c0,0,40.8,4.6,40.8-59.8
	S290,138.7,290,138.7h-21.2v29.9c0,0,1.1,35.6-35.1,35.6h-60.4c0,0-33.9-0.6-33.9,32.8v55.1C139.4,292.2,134.2,325.5,200.9,325.5z
	 M234.5,306.2c-6.1,0-11-4.9-11-11s4.9-11,11-11s11,4.9,11,11l0,0c0,6-4.8,11-10.9,11C234.6,306.2,234.5,306.2,234.5,306.2
	L234.5,306.2z"/>
</svg>
