<svg id="Ebene_1" data-name="Ebene 1" xmlns="http://www.w3.org/2000/svg" viewBox="0 0 400 400">
  <defs>
    <style>
      .cls-1 {
        fill: #eee;
      }
    </style>
  </defs>
  <path class="cls-1" d="M191.53,96.12a8.08,8.08,0,1,1,8.07,8.08,8.07,8.07,0,0,1-8.07-8.08M95.16,169.25a8.08,8.08,0,0,1,16.15,0h0a8.08,8.08,0,1,1-16.15,0m192.73.38A8.08,8.08,0,1,1,296,177.7a8.08,8.08,0,0,1-8.08-8.07M118.53,180.72a7.39,7.39,0,0,0,3.75-9.73l-3.59-8.11h14.1v63.53H104.35a99.51,99.51,0,0,1-3.22-38Zm59,1.56V163.55h33.57c1.73,0,12.23,2,12.23,9.86,0,6.52-8.07,8.86-14.69,8.86ZM131.66,283.11a8.08,8.08,0,1,1,8.08,8.08,8.08,8.08,0,0,1-8.08-8.08m119.7.37a8.08,8.08,0,1,1,8.08,8.08,8.08,8.08,0,0,1-8.08-8.08m2.5-18.32a7.36,7.36,0,0,0-8.75,5.67l-4.05,18.92a99.48,99.48,0,0,1-82.94-.4l-4.05-18.92a7.36,7.36,0,0,0-8.75-5.67l-16.71,3.59A98.67,98.67,0,0,1,120,258.16h81.28c.92,0,1.53-.17,1.53-1V228.41c0-.85-.61-1-1.53-1H177.48V209.18h25.71c2.34,0,12.54.68,15.81,13.71l4.8,21.23c1.53,4.67,7.76,14,14.38,14h42a99.55,99.55,0,0,1-9.22,10.66ZM299,189.25a98.51,98.51,0,0,1,.22,17.26H289c-1,0-1.44.68-1.44,1.68v4.69c0,11-6.22,13.41-11.67,14-5.18.6-11-2.17-11.65-5.35-3.06-17.22-8.16-20.89-16.14-27.26,10-6.35,20.4-15.71,20.4-28.26,0-13.54-9.28-22.06-15.61-26.24a44.22,44.22,0,0,0-21.35-7H125.93a99.53,99.53,0,0,1,55.64-31.4L194,114.43a7.37,7.37,0,0,0,10.42.23l13.93-13.3a99.41,99.41,0,0,1,68.09,48.48l-9.53,21.53a7.39,7.39,0,0,0,3.75,9.73Zm23.77.34-.32-3.33,9.82-9.16a4.09,4.09,0,0,0-1.3-6.56l-12.55-4.69-1-3.22,7.81-10.87a4.09,4.09,0,0,0-2.55-6.18l-13.23-2.15-1.59-3,5.56-12.21a4.07,4.07,0,0,0-3.71-5.56l-13.42.47-2.12-2.58,3.08-13.08a4.09,4.09,0,0,0-4.73-4.73l-13.08,3.09-2.58-2.13.47-13.42a4.09,4.09,0,0,0-5.56-3.71l-12.2,5.57-3-1.6-2.16-13.23a4.07,4.07,0,0,0-6.17-2.55L237.41,82.6l-3.23-1-4.69-12.54a4.08,4.08,0,0,0-6.55-1.31l-9.16,9.82-3.33-.32-7.07-11.43a4.09,4.09,0,0,0-6.68,0l-7.07,11.43-3.33.32-9.17-9.84a4.09,4.09,0,0,0-6.56,1.31l-4.69,12.55-3.22,1-10.88-7.81a4.08,4.08,0,0,0-6.17,2.55l-2.16,13.23-3,1.6-12.2-5.57a4.08,4.08,0,0,0-5.55,3.72l.47,13.42-2.59,2.12-13.08-3.08a4.09,4.09,0,0,0-4.73,4.73l3.09,13.08-2.13,2.57-13.42-.47a4.09,4.09,0,0,0-3.71,5.57l5.56,12.2-1.59,3-13.24,2.14a4.08,4.08,0,0,0-2.54,6.18l7.81,10.87-1,3.23L69.1,170.53a4.08,4.08,0,0,0-1.3,6.55l9.82,9.16-.32,3.33-11.43,7.07a4.09,4.09,0,0,0,0,6.68l11.43,7.07.32,3.33-9.84,9.19a4.08,4.08,0,0,0,1.3,6.55l12.54,4.69,1,3.23-7.82,10.87a4.09,4.09,0,0,0,2.55,6.18l13.22,2.14,1.6,3L86.6,271.74a4.09,4.09,0,0,0,3.71,5.57l13.42-.47,2.12,2.58-3.08,13.08a4.08,4.08,0,0,0,4.73,4.72l13.08-3.08,2.58,2.12-.47,13.42a4.09,4.09,0,0,0,5.56,3.72l12.2-5.57,3,1.6,2.16,13.22a4.08,4.08,0,0,0,6.17,2.57l10.87-7.83,3.23,1,4.69,12.55a4.09,4.09,0,0,0,6.56,1.3l9.15-9.82,3.33.34,7.07,11.42a4.09,4.09,0,0,0,6.68,0l7.07-11.42,3.33-.34,9.15,9.82a4.09,4.09,0,0,0,6.56-1.3l4.69-12.55,3.23-1,10.87,7.83a4.08,4.08,0,0,0,6.17-2.57l2.16-13.22,3-1.6,12.2,5.57a4.08,4.08,0,0,0,5.56-3.72l-.47-13.42,2.57-2.12,13.08,3.08a4.08,4.08,0,0,0,4.73-4.72l-3.08-13.08,2.12-2.58,13.42.47a4.09,4.09,0,0,0,3.71-5.57l-5.56-12.19,1.59-3,13.23-2.14a4.07,4.07,0,0,0,2.55-6.18l-7.81-10.87,1-3.23,12.55-4.69a4.08,4.08,0,0,0,1.3-6.55l-9.82-9.16.32-3.33,11.42-7.07a4.08,4.08,0,0,0,0-6.68Z"/>
</svg>
