<svg id="Ebene_1" data-name="Ebene 1" xmlns="http://www.w3.org/2000/svg" viewBox="0 0 400 400">
  <defs>
    <style>
      .cls-1 {
        fill: #eee;
      }
    </style>
  </defs>
  <path class="cls-1" d="M192.24,104.81a7.4,7.4,0,1,1,7.4,7.41,7.4,7.4,0,0,1-7.4-7.41m-88.31,67a7.4,7.4,0,0,1,14.8,0h0a7.4,7.4,0,1,1-14.8,0m176.61.35a7.4,7.4,0,1,1,7.4,7.4,7.4,7.4,0,0,1-7.4-7.4M125.35,182.33a6.77,6.77,0,0,0,3.43-8.92L125.5,166h12.92V224.2H112.35a91.2,91.2,0,0,1-2.95-34.79Zm54,1.43V166.6h30.76c1.58,0,11.2,1.84,11.2,9,0,6-7.39,8.13-13.46,8.13Zm-42,92.39a7.4,7.4,0,1,1,7.4,7.41,7.4,7.4,0,0,1-7.4-7.41m109.69.35a7.4,7.4,0,1,1,7.4,7.4,7.4,7.4,0,0,1-7.4-7.4m2.28-16.79a6.74,6.74,0,0,0-8,5.19l-3.71,17.34a91.17,91.17,0,0,1-76-.36l-3.71-17.34a6.74,6.74,0,0,0-8-5.2l-15.31,3.29a91.42,91.42,0,0,1-7.92-9.33h74.48c.84,0,1.41-.16,1.41-.92V226c0-.78-.57-.92-1.41-.92H179.36v-16.7h23.56c2.15,0,11.5.63,14.49,12.56l4.4,19.46c1.4,4.28,7.11,12.87,13.18,12.87h38.44a91.15,91.15,0,0,1-8.44,9.76Zm41.36-69.56a90.85,90.85,0,0,1,.2,15.82h-9.34c-.94,0-1.33.62-1.33,1.53v4.3c0,10.12-5.69,12.29-10.69,12.86-4.75.55-10-2-10.68-4.9-2.8-15.78-7.47-19.15-14.79-25,9.17-5.82,18.7-14.4,18.7-25.9,0-12.4-8.51-20.22-14.31-24a40.42,40.42,0,0,0-19.56-6.43H132.13a91.19,91.19,0,0,1,51-28.78l11.41,12a6.73,6.73,0,0,0,9.54.21l12.76-12.19A91.15,91.15,0,0,1,279.22,154l-8.74,19.72a6.78,6.78,0,0,0,3.44,8.92Zm21.78.31-.3-3.05,9-8.39a3.74,3.74,0,0,0-1.19-6l-11.5-4.3-.9-3,7.16-10a3.75,3.75,0,0,0-2.33-5.66l-12.13-2-1.45-2.72,5.09-11.18a3.73,3.73,0,0,0-3.4-5.1l-12.29.43-1.95-2.36,2.82-12a3.74,3.74,0,0,0-4.33-4.33l-12,2.82-2.36-1.94.43-12.3a3.74,3.74,0,0,0-5.09-3.4l-11.18,5.1-2.72-1.47-2-12.12a3.74,3.74,0,0,0-5.66-2.34l-10,7.16-3-.89L227,80a3.74,3.74,0,0,0-6-1.2l-8.39,9-3-.29L203.1,77.07a3.75,3.75,0,0,0-6.13,0L190.5,87.54l-3.05.29-8.41-9a3.74,3.74,0,0,0-6,1.2l-4.29,11.49-3,.9-10-7.16a3.74,3.74,0,0,0-5.66,2.33l-2,12.13-2.72,1.46-11.18-5.1a3.74,3.74,0,0,0-5.09,3.4l.43,12.3-2.36,2-12-2.83a3.75,3.75,0,0,0-4.34,4.34l2.83,12-2,2.36-12.29-.43a3.75,3.75,0,0,0-3.4,5.1l5.09,11.19-1.46,2.72-12.13,2a3.74,3.74,0,0,0-2.33,5.66l7.16,10-.9,3L80.05,173a3.74,3.74,0,0,0-1.19,6l9,8.39-.3,3.05-10.47,6.48a3.75,3.75,0,0,0,0,6.12l10.47,6.48.3,3-9,8.42A3.74,3.74,0,0,0,80,227l11.49,4.29.91,3-7.16,10a3.74,3.74,0,0,0,2.33,5.66l12.12,2,1.46,2.73-5.1,11.17a3.76,3.76,0,0,0,3.41,5.1l12.29-.43,2,2.37-2.83,12a3.74,3.74,0,0,0,4.34,4.33l12-2.83,2.37,1.95-.43,12.3a3.74,3.74,0,0,0,5.09,3.4l11.18-5.1,2.72,1.46,2,12.12a3.74,3.74,0,0,0,5.66,2.35l10-7.17,3,.9L173,320a3.75,3.75,0,0,0,6,1.19l8.39-9,3,.31,6.48,10.47a3.75,3.75,0,0,0,6.12,0l6.48-10.47,3.05-.31,8.39,9a3.75,3.75,0,0,0,6-1.19l4.29-11.5,3-.9,10,7.17a3.74,3.74,0,0,0,5.66-2.35l2-12.12,2.72-1.46,11.18,5.1a3.74,3.74,0,0,0,5.09-3.4l-.43-12.3,2.36-1.95,12,2.83a3.74,3.74,0,0,0,4.33-4.33l-2.82-12,1.94-2.37,12.3.43a3.75,3.75,0,0,0,3.4-5.1l-5.1-11.17,1.46-2.73,12.12-2a3.72,3.72,0,0,0,2.34-5.66l-7.16-10,.9-3L320,227a3.75,3.75,0,0,0,1.19-6l-9-8.39.29-3,10.47-6.48a3.73,3.73,0,0,0,0-6.12Z"/>
</svg>
