<svg id="Ebene_1" data-name="Ebene 1" xmlns="http://www.w3.org/2000/svg" viewBox="0 0 400 400">
  <defs>
    <style>
      .cls-1, .cls-2 {
        fill: #eee;
      }

      .cls-1 {
        fill-rule: evenodd;
      }
    </style>
  </defs>
  <g>
    <path class="cls-1" d="M220.58,189.47a24.38,24.38,0,1,0-24.38-24.38A24.37,24.37,0,0,0,220.58,189.47Z"/>
    <circle class="cls-2" cx="179.58" cy="234.91" r="24.38"/>
    <path class="cls-1" d="M312.62,151.13a93.1,93.1,0,0,0-180.9-13.79A108.49,108.49,0,0,1,167.42,127q1.41-2,3-3.82A65.41,65.41,0,1,1,242.1,226.87a66.63,66.63,0,0,1,.49,8,65.21,65.21,0,0,1-3.6,21.43,93.08,93.08,0,0,0,73.63-105.21Z"/>
    <path class="cls-1" d="M229.62,276.85a65.42,65.42,0,1,1-72-103.62,65.54,65.54,0,0,1,3.63-29.62c-.89.17-1.78.39-2.67.59v0c-.33.07-.65.16-1,.24l-1.31.33c-.92.23-1.83.48-2.74.75l-1.17.33q-3.84,1.17-7.55,2.65l-1.13.47c-.88.37-1.74.74-2.61,1.13-.41.19-.82.37-1.23.57-.88.41-1.75.84-2.62,1.28l-1,.51c-1.15.6-2.29,1.22-3.42,1.87h0c-1.33.78-2.65,1.58-4,2.42A93.09,93.09,0,1,0,268.3,262.57,108.27,108.27,0,0,1,232.59,273Q231.18,275,229.62,276.85Z"/>
  </g>
</svg>
