<svg id="Ebene_1" data-name="Ebene 1" xmlns="http://www.w3.org/2000/svg" viewBox="0 0 400 400">
  <defs>
    <style>
      .cls-1 {
        fill: #eee;
      }
    </style>
  </defs>
  <path class="cls-1" d="M200.15,79.84a117.63,117.63,0,0,1,84.3,35.25,121,121,0,0,1,0,170.12A118.44,118.44,0,0,1,117,286.32l-1.11-1.11a121,121,0,0,1,0-170.12,117.41,117.41,0,0,1,84.31-35.25m0-5.55c-69,0-124.81,56.26-124.81,125.71S131.15,325.71,200,325.71,324.66,269.45,324.66,200,269,74.29,200.15,74.29"/>
  <path class="cls-1" d="M254.75,237.35c-4.5,0-6.3-2.7-6.3-2.7-.3-1.2-.6-19.05-.75-36.75-.15-18.45,0-36.75.9-36.9,5.25-9.75,21.75-29.4,21.75-29.4-30.9,6.15-47.7,26.4-47.7,26.4-5-3.9-15.15-3.3-15.15-3.3,4.8,2.55,9.45,10.2,9.45,16.5v62.1s-10.35,9.15-18.3,9.15a11.37,11.37,0,0,1-9.3-4.65,14,14,0,0,1-1.5-2.7V158.45a6.69,6.69,0,0,1-3.75,1.35c-1.65,0-3.45-.9-4.65-3.3-.9-1.95-1.5-4.65-1.5-8.85C178,133.55,194,124.1,194,124.1c-20.25,5.4-39.15,15.9-64.2,44.7s-20.26,52.5-20.26,52.5,6.75-16.5,23.41-33.75c8-8.1,13.8-10.8,17.85-11a6.21,6.21,0,0,1,6.59,5.81c0,.16,0,.33,0,.49V241.2c0,5.7-3.75,7.05-7.2,6.9a17.55,17.55,0,0,1-5.55-1c17.1,24.75,57.9,28.35,57.9,28.35l18-19.2.45.3,16.5,13.95c30-17.85,44.55-51,44.55-51-13.65,14.55-22.2,17.85-27.3,17.85"/>
</svg>
