<svg id="Ebene_1" data-name="Ebene 1" xmlns="http://www.w3.org/2000/svg" xmlns:xlink="http://www.w3.org/1999/xlink" viewBox="0 0 400 400">
  <defs>
    <style>
      .cls-1 {
        fill: #eee;
      }

      .cls-2 {
        clip-path: url(#clip-path);
      }

      .cls-3 {
        clip-path: url(#clip-path-2);
      }

      .cls-4 {
        clip-path: url(#clip-path-3);
      }

      .cls-5 {
        fill: none;
      }
    </style>
    <clipPath id="clip-path">
      <path class="cls-1" d="M254.75,237.35c-4.5,0-6.3-2.7-6.3-2.7-.3-1.2-.6-19.05-.75-36.75-.15-18.45,0-36.75.9-36.9,5.25-9.75,21.75-29.4,21.75-29.4-30.9,6.15-47.7,26.4-47.7,26.4-5-3.9-15.15-3.3-15.15-3.3,4.8,2.55,9.45,10.2,9.45,16.5v62.1s-10.35,9.15-18.3,9.15a11.4,11.4,0,0,1-9.3-4.65,13.56,13.56,0,0,1-1.5-2.7V158.45a6.71,6.71,0,0,1-3.75,1.35c-1.65,0-3.45-.9-4.65-3.3-.9-1.95-1.5-4.65-1.5-8.85C178,133.55,194,124.1,194,124.1c-20.25,5.4-39.15,15.9-64.2,44.7s-20.26,52.5-20.26,52.5,6.75-16.5,23.41-33.75c8-8.1,13.8-10.8,17.85-11a6.21,6.21,0,0,1,6.6,6.3v58.35c0,5.7-3.75,7.05-7.2,6.9a17.43,17.43,0,0,1-5.55-1.05c17.1,24.75,57.9,28.35,57.9,28.35l18-19.2.45.3,16.5,13.95c30-17.85,44.55-51,44.55-51-13.65,14.55-22.2,17.85-27.3,17.85"/>
    </clipPath>
    <clipPath id="clip-path-2">
      <rect class="cls-1" x="-43.46" y="-69.72" width="1058.46" height="705.64"/>
    </clipPath>
    <clipPath id="clip-path-3">
      <path class="cls-1" d="M200.15,79.84a117.64,117.64,0,0,1,84.3,35.25,121,121,0,0,1,0,170.12,118.44,118.44,0,0,1-168.61,0,121,121,0,0,1,0-170.12,117.43,117.43,0,0,1,84.31-35.25m0-5.55c-69,0-124.81,56.26-124.81,125.71S131.15,325.71,200,325.71,324.66,269.45,324.66,200,269,74.29,200.15,74.29"/>
    </clipPath>
  </defs>
  <g>
    <g>
      <path class="cls-1" d="M254.75,237.35c-4.5,0-6.3-2.7-6.3-2.7-.3-1.2-.6-19.05-.75-36.75-.15-18.45,0-36.75.9-36.9,5.25-9.75,21.75-29.4,21.75-29.4-30.9,6.15-47.7,26.4-47.7,26.4-5-3.9-15.15-3.3-15.15-3.3,4.8,2.55,9.45,10.2,9.45,16.5v62.1s-10.35,9.15-18.3,9.15a11.4,11.4,0,0,1-9.3-4.65,13.56,13.56,0,0,1-1.5-2.7V158.45a6.71,6.71,0,0,1-3.75,1.35c-1.65,0-3.45-.9-4.65-3.3-.9-1.95-1.5-4.65-1.5-8.85C178,133.55,194,124.1,194,124.1c-20.25,5.4-39.15,15.9-64.2,44.7s-20.26,52.5-20.26,52.5,6.75-16.5,23.41-33.75c8-8.1,13.8-10.8,17.85-11a6.21,6.21,0,0,1,6.6,6.3v58.35c0,5.7-3.75,7.05-7.2,6.9a17.43,17.43,0,0,1-5.55-1.05c17.1,24.75,57.9,28.35,57.9,28.35l18-19.2.45.3,16.5,13.95c30-17.85,44.55-51,44.55-51-13.65,14.55-22.2,17.85-27.3,17.85"/>
      <g class="cls-2">
        <g>
          <rect class="cls-1" x="-43.46" y="-69.72" width="1058.46" height="705.64"/>
          <g class="cls-3">
            <rect class="cls-1" x="107.29" y="122.3" width="176.41" height="155.11"/>
          </g>
        </g>
      </g>
    </g>
    <g>
      <path class="cls-1" d="M200.15,79.84a117.64,117.64,0,0,1,84.3,35.25,121,121,0,0,1,0,170.12,118.44,118.44,0,0,1-168.61,0,121,121,0,0,1,0-170.12,117.43,117.43,0,0,1,84.31-35.25m0-5.55c-69,0-124.81,56.26-124.81,125.71S131.15,325.71,200,325.71,324.66,269.45,324.66,200,269,74.29,200.15,74.29"/>
      <g class="cls-4">
        <g>
          <rect class="cls-1" x="-43.46" y="-69.72" width="1058.46" height="705.64"/>
          <g class="cls-3">
            <rect class="cls-1" x="73.54" y="72.49" width="252.92" height="255.02"/>
          </g>
        </g>
      </g>
    </g>
  </g>
  <rect class="cls-5" width="400" height="400"/>
</svg>
