<svg id="Ebene_1" data-name="Ebene 1" xmlns="http://www.w3.org/2000/svg" viewBox="0 0 400 400">
  <defs>
    <style>
      .cls-1 {
        fill: #eee;
        fill-rule: evenodd;
      }
    </style>
  </defs>
  <path class="cls-1" d="M200,74.46A125.55,125.55,0,1,0,325.54,200v0A125.54,125.54,0,0,0,200,74.46Zm.19,79a46.53,46.53,0,1,0-3.34,93c1.11,0,2.23,0,3.34,0a46.09,46.09,0,0,0,27.9-9.3,20.68,20.68,0,0,1,24.84,33.07,87.89,87.89,0,1,1,0-140.59,20.68,20.68,0,1,1-24.19,33.55c-.22-.16-.44-.32-.65-.49a46.08,46.08,0,0,0-27.9-9.24ZM226.88,200A26.88,26.88,0,1,1,200,173.12,26.87,26.87,0,0,1,226.88,200Z"/>
</svg>
