<svg id="Ebene_1" data-name="Ebene 1" xmlns="http://www.w3.org/2000/svg" xmlns:xlink="http://www.w3.org/1999/xlink" viewBox="0 0 400 400">
  <defs>
    <style>
      .cls-1, .cls-2 {
        fill: #eee;
      }

      .cls-2 {
        fill-rule: evenodd;
      }

      .cls-3 {
        clip-path: url(#clip-path);
      }

      .cls-4 {
        clip-path: url(#clip-path-2);
      }

      .cls-5 {
        fill: none;
      }
    </style>
    <clipPath id="clip-path">
      <path class="cls-1" d="M-677.25,688.91c-4.5,0-6.3-2.7-6.3-2.7-.3-1.2-.6-19.05-.75-36.75-.15-18.46,0-36.76.9-36.91,5.25-9.75,21.75-29.4,21.75-29.4-30.9,6.15-47.7,26.4-47.7,26.4-4.95-3.9-15.15-3.3-15.15-3.3,4.8,2.55,9.45,10.2,9.45,16.5v62.11S-725.4,694-733.35,694a11.4,11.4,0,0,1-9.3-4.65,13.56,13.56,0,0,1-1.5-2.7V610a6.71,6.71,0,0,1-3.75,1.35c-1.65,0-3.45-.9-4.65-3.3-.9-1.95-1.5-4.65-1.5-8.85,0-14.1,16-23.55,16-23.55-20.25,5.4-39.15,15.9-64.2,44.7s-20.26,52.51-20.26,52.51,6.75-16.5,23.41-33.76c7.95-8.1,13.8-10.8,17.85-11a6.21,6.21,0,0,1,6.6,6.3v58.36c0,5.7-3.75,7.05-7.2,6.9a17.43,17.43,0,0,1-5.55-1.05c17.1,24.75,57.9,28.35,57.9,28.35l18-19.2.45.3,16.5,13.95c30-17.85,44.55-51,44.55-51-13.65,14.55-22.2,17.85-27.3,17.85"/>
    </clipPath>
    <clipPath id="clip-path-2">
      <path class="cls-1" d="M-731.85,531.4a117.64,117.64,0,0,1,84.3,35.25,120,120,0,0,1,35,85.06,120.29,120.29,0,0,1-35,85A118.26,118.26,0,0,1-731.85,772a117.68,117.68,0,0,1-84.31-35.25,120.07,120.07,0,0,1-35-85,120.33,120.33,0,0,1,35-85.06,117.43,117.43,0,0,1,84.31-35.25m0-5.55c-69,0-124.81,56.25-124.81,125.71s55.81,125.7,124.66,125.7S-607.34,721-607.34,651.56-663,525.85-731.85,525.85"/>
    </clipPath>
  </defs>
  <path class="cls-2" d="M200,74.46A125.55,125.55,0,1,0,325.54,200,125.54,125.54,0,0,0,200,74.46Zm.19,79a46.53,46.53,0,1,0,0,93,46.09,46.09,0,0,0,27.9-9.3,20.68,20.68,0,1,1,24.84,33.07,87.89,87.89,0,1,1,0-140.59,20.68,20.68,0,1,1-24.84,33.06A46.08,46.08,0,0,0,200.19,153.46ZM226.88,200A26.88,26.88,0,1,1,200,173.12,26.88,26.88,0,0,1,226.88,200Z"/>
  <g>
    <g>
      <path class="cls-1" d="M-677.25,688.91c-4.5,0-6.3-2.7-6.3-2.7-.3-1.2-.6-19.05-.75-36.75-.15-18.46,0-36.76.9-36.91,5.25-9.75,21.75-29.4,21.75-29.4-30.9,6.15-47.7,26.4-47.7,26.4-4.95-3.9-15.15-3.3-15.15-3.3,4.8,2.55,9.45,10.2,9.45,16.5v62.11S-725.4,694-733.35,694a11.4,11.4,0,0,1-9.3-4.65,13.56,13.56,0,0,1-1.5-2.7V610a6.71,6.71,0,0,1-3.75,1.35c-1.65,0-3.45-.9-4.65-3.3-.9-1.95-1.5-4.65-1.5-8.85,0-14.1,16-23.55,16-23.55-20.25,5.4-39.15,15.9-64.2,44.7s-20.26,52.51-20.26,52.51,6.75-16.5,23.41-33.76c7.95-8.1,13.8-10.8,17.85-11a6.21,6.21,0,0,1,6.6,6.3v58.36c0,5.7-3.75,7.05-7.2,6.9a17.43,17.43,0,0,1-5.55-1.05c17.1,24.75,57.9,28.35,57.9,28.35l18-19.2.45.3,16.5,13.95c30-17.85,44.55-51,44.55-51-13.65,14.55-22.2,17.85-27.3,17.85"/>
      <g class="cls-3">
        <rect class="cls-1" x="-975.46" y="381.84" width="1058.46" height="705.64"/>
      </g>
    </g>
    <g>
      <path class="cls-1" d="M-731.85,531.4a117.64,117.64,0,0,1,84.3,35.25,120,120,0,0,1,35,85.06,120.29,120.29,0,0,1-35,85A118.26,118.26,0,0,1-731.85,772a117.68,117.68,0,0,1-84.31-35.25,120.07,120.07,0,0,1-35-85,120.33,120.33,0,0,1,35-85.06,117.43,117.43,0,0,1,84.31-35.25m0-5.55c-69,0-124.81,56.25-124.81,125.71s55.81,125.7,124.66,125.7S-607.34,721-607.34,651.56-663,525.85-731.85,525.85"/>
      <g class="cls-4">
        <rect class="cls-1" x="-975.46" y="381.84" width="1058.46" height="705.64"/>
      </g>
    </g>
  </g>
  <rect class="cls-5" width="400" height="400"/>
</svg>
