<svg id="Ebene_1" data-name="Ebene 1" xmlns="http://www.w3.org/2000/svg" xmlns:xlink="http://www.w3.org/1999/xlink" viewBox="0 0 400 400">
  <defs>
    <style>
      .cls-1 {
        fill: #eee;
      }

      .cls-2 {
        fill: #c6c6c6;
      }

      .cls-3 {
        clip-path: url(#clip-path);
      }

      .cls-4 {
        clip-path: url(#clip-path-2);
      }

      .cls-5 {
        fill: none;
      }
    </style>
    <clipPath id="clip-path">
      <path class="cls-1" d="M-206.58,688.91c-4.5,0-6.3-2.7-6.3-2.7-.3-1.2-.6-19.05-.75-36.75-.15-18.46,0-36.76.9-36.91,5.25-9.75,21.75-29.4,21.75-29.4-30.9,6.15-47.7,26.4-47.7,26.4-4.95-3.9-15.15-3.3-15.15-3.3,4.8,2.55,9.45,10.2,9.45,16.5v62.11s-10.35,9.15-18.3,9.15a11.4,11.4,0,0,1-9.3-4.65,13.56,13.56,0,0,1-1.5-2.7V610a6.71,6.71,0,0,1-3.75,1.35c-1.65,0-3.45-.9-4.65-3.3-.9-1.95-1.5-4.65-1.5-8.85,0-14.1,16.05-23.55,16.05-23.55-20.26,5.4-39.16,15.9-64.21,44.7s-20.25,52.51-20.25,52.51,6.75-16.5,23.4-33.76c7.95-8.1,13.8-10.8,17.85-11a6.21,6.21,0,0,1,6.6,6.3v58.36c0,5.7-3.75,7.05-7.2,6.9a17.43,17.43,0,0,1-5.55-1.05c17.1,24.75,57.91,28.35,57.91,28.35l18-19.2.45.3,16.5,13.95c30-17.85,44.55-51,44.55-51-13.65,14.55-22.2,17.85-27.3,17.85"/>
    </clipPath>
    <clipPath id="clip-path-2">
      <path class="cls-1" d="M-261.18,531.4a117.64,117.64,0,0,1,84.3,35.25,120.07,120.07,0,0,1,34.95,85.06,120.33,120.33,0,0,1-34.95,85A118.26,118.26,0,0,1-261.18,772a117.65,117.65,0,0,1-84.31-35.25,120.07,120.07,0,0,1-34.95-85,120.33,120.33,0,0,1,34.95-85.06,117.39,117.39,0,0,1,84.31-35.25m0-5.55c-69,0-124.81,56.25-124.81,125.71s55.8,125.7,124.66,125.7S-136.68,721-136.68,651.56c.15-69.46-55.65-125.71-124.5-125.71"/>
    </clipPath>
  </defs>
  <g>
    <path class="cls-1" d="M199.34,325.37a132.72,132.72,0,0,0-6.12-21.78c-11.4-31.22-26.91-60.44-43.69-89a726.89,726.89,0,0,0-40.26-61.7,314.92,314.92,0,0,0-20.92-26c-3.26-3.59-6.54-7.17-9.6-10.51,3.17.16,6.75,1.61,10.44,2.42a322.59,322.59,0,0,0,37.57,5.81c9.24.91,18.5,1.61,27.76,2.27,1.6.11,2.17,1.1,2.88,2.1,13.19,18.75,25.91,37.81,37.37,57.69,1.51,2.6,3.09,5.16,4.83,8.06,2.74-4.35,5-8.67,7.56-12.81,11.05-17.93,22.67-35.47,35.19-52.42a6.64,6.64,0,0,1,5.49-3.07,423.16,423.16,0,0,0,48-5.31,188.45,188.45,0,0,0,23.6-5.18,11,11,0,0,1,1.78-.17c-29.08,29.47-52.14,63-72.87,98.25S208.48,285.06,199.34,325.37Z"/>
    <path class="cls-2" d="M227.6,294c2.67-6,5.15-11.52,7.53-17.06a5.41,5.41,0,0,1,3-3c32.16-14.9,51.05-39.9,56.78-74.76a83.47,83.47,0,0,0,.37-22.77,2.92,2.92,0,0,1,.23-2.26q5.6-7.64,11.2-15.25a7.54,7.54,0,0,1,1.25-1c7.31,30.83,3.33,59.71-13.2,86.5C279.16,269.78,256.6,286,227.6,294Z"/>
    <path class="cls-2" d="M170.09,293.78c-35-11.1-59.92-32.63-73.94-66.13-10-23.8-9.81-51.4-4.64-68.45,3.32,3.49,5.36,7.88,8.45,11.37,3.65,4.11,3.81,8.73,3.74,13.71a98.36,98.36,0,0,0,12.65,49.59c5.25,9.52,12.42,17.33,20.32,24.6,6.62,6.09,14.27,10.64,22.35,14.52.87.42,2,.6,2.44,1.53C164.51,280.69,167.41,286.92,170.09,293.78Z"/>
    <path class="cls-2" d="M277.4,106c-6.6.68-12.29,1.24-18,1.89a9.7,9.7,0,0,1-6.56-1.61C218.19,85,183.19,84.59,148.2,105.38a16.56,16.56,0,0,1-11.51,2.44c-3.93-.54-7.9-.77-11.85-1-.87-.06-1.92.28-2.26-.7s.73-1.27,1.28-1.78c14.13-13,30.5-22.11,49.22-26.39,37.38-8.55,70.87-.28,100.27,24.34C274.59,103.27,275.71,104.44,277.4,106Z"/>
  </g>
  <g>
    <g>
      <path class="cls-1" d="M-206.58,688.91c-4.5,0-6.3-2.7-6.3-2.7-.3-1.2-.6-19.05-.75-36.75-.15-18.46,0-36.76.9-36.91,5.25-9.75,21.75-29.4,21.75-29.4-30.9,6.15-47.7,26.4-47.7,26.4-4.95-3.9-15.15-3.3-15.15-3.3,4.8,2.55,9.45,10.2,9.45,16.5v62.11s-10.35,9.15-18.3,9.15a11.4,11.4,0,0,1-9.3-4.65,13.56,13.56,0,0,1-1.5-2.7V610a6.71,6.71,0,0,1-3.75,1.35c-1.65,0-3.45-.9-4.65-3.3-.9-1.95-1.5-4.65-1.5-8.85,0-14.1,16.05-23.55,16.05-23.55-20.26,5.4-39.16,15.9-64.21,44.7s-20.25,52.51-20.25,52.51,6.75-16.5,23.4-33.76c7.95-8.1,13.8-10.8,17.85-11a6.21,6.21,0,0,1,6.6,6.3v58.36c0,5.7-3.75,7.05-7.2,6.9a17.43,17.43,0,0,1-5.55-1.05c17.1,24.75,57.91,28.35,57.91,28.35l18-19.2.45.3,16.5,13.95c30-17.85,44.55-51,44.55-51-13.65,14.55-22.2,17.85-27.3,17.85"/>
      <g class="cls-3">
        <rect class="cls-1" x="-504.8" y="381.84" width="1058.46" height="705.64"/>
      </g>
    </g>
    <g>
      <path class="cls-1" d="M-261.18,531.4a117.64,117.64,0,0,1,84.3,35.25,120.07,120.07,0,0,1,34.95,85.06,120.33,120.33,0,0,1-34.95,85A118.26,118.26,0,0,1-261.18,772a117.65,117.65,0,0,1-84.31-35.25,120.07,120.07,0,0,1-34.95-85,120.33,120.33,0,0,1,34.95-85.06,117.39,117.39,0,0,1,84.31-35.25m0-5.55c-69,0-124.81,56.25-124.81,125.71s55.8,125.7,124.66,125.7S-136.68,721-136.68,651.56c.15-69.46-55.65-125.71-124.5-125.71"/>
      <g class="cls-4">
        <rect class="cls-1" x="-504.8" y="381.84" width="1058.46" height="705.64"/>
      </g>
    </g>
  </g>
  <rect class="cls-5" width="400" height="400"/>
</svg>
