<svg id="Ebene_1" data-name="Ebene 1" xmlns="http://www.w3.org/2000/svg" xmlns:xlink="http://www.w3.org/1999/xlink" viewBox="0 0 400 400">
  <defs>
    <style>
      .cls-1 {
        fill: #fff;
      }

      .cls-1, .cls-7 {
        fill-rule: evenodd;
      }

      .cls-2 {
        mask: url(#mask);
      }

      .cls-3 {
        fill: #919191;
      }

      .cls-4 {
        fill: #c6c6c6;
      }

      .cls-5 {
        fill: #eee;
      }

      .cls-6 {
        opacity: 0.25;
      }

      .cls-7 {
        fill: url(#Unbenannter_Verlauf_5);
      }

      .cls-8 {
        fill: none;
      }
    </style>
    <mask id="mask" x="75.1" y="75.48" width="249.8" height="248.36" maskUnits="userSpaceOnUse">
      <g id="mask0">
        <path class="cls-1" d="M252.28,322.79a15.56,15.56,0,0,0,12.39-.48l51.4-24.73a15.61,15.61,0,0,0,8.83-14.06V115.82a15.58,15.58,0,0,0-8.83-14.06L264.67,77a15.57,15.57,0,0,0-15.88,1.43A17.38,17.38,0,0,0,246.93,80l-98.39,89.77-42.86-32.53a10.4,10.4,0,0,0-13.28.59l-13.75,12.5a10.42,10.42,0,0,0,0,15.39l37.17,33.91L78.64,233.58a10.41,10.41,0,0,0,0,15.38L92.4,261.47a10.41,10.41,0,0,0,13.28.59l42.86-32.54,98.39,89.77A15.64,15.64,0,0,0,252.28,322.79ZM262.53,143l-74.66,56.68,74.66,56.67Z"/>
      </g>
    </mask>
    <linearGradient id="Unbenannter_Verlauf_5" data-name="Unbenannter Verlauf 5" x1="199.92" y1="326.52" x2="199.92" y2="78.15" gradientTransform="matrix(1, 0, 0, -1, 0, 402)" gradientUnits="userSpaceOnUse">
      <stop offset="0" stop-color="#fff"/>
      <stop offset="1" stop-color="#fff" stop-opacity="0"/>
    </linearGradient>
  </defs>
  <g class="cls-2">
    <g>
      <path class="cls-3" d="M316.07,101.79,264.63,77a15.54,15.54,0,0,0-17.74,3L78.49,233.58a10.4,10.4,0,0,0,0,15.38l13.76,12.51a10.41,10.41,0,0,0,13.28.59L308.33,108.22a10.33,10.33,0,0,1,16.57,8.23v-.6A15.61,15.61,0,0,0,316.07,101.79Z"/>
      <path class="cls-4" d="M316.07,297.54l-51.44,24.77a15.56,15.56,0,0,1-17.74-3L78.49,165.76a10.41,10.41,0,0,1,0-15.39l13.76-12.5a10.4,10.4,0,0,1,13.28-.59L308.33,291.11a10.33,10.33,0,0,0,16.57-8.23v.6A15.61,15.61,0,0,1,316.07,297.54Z"/>
      <path class="cls-5" d="M264.63,322.31a15.55,15.55,0,0,1-17.74-3,9.14,9.14,0,0,0,15.6-6.46V86.5A9.14,9.14,0,0,0,246.89,80a15.56,15.56,0,0,1,17.74-3l51.43,24.73a15.62,15.62,0,0,1,8.84,14.07v167.7a15.62,15.62,0,0,1-8.84,14.06Z"/>
      <g class="cls-6">
        <path class="cls-7" d="M252.13,322.79a15.56,15.56,0,0,0,12.39-.48l51.39-24.73a15.6,15.6,0,0,0,8.84-14.06V115.82a15.6,15.6,0,0,0-8.84-14.07L264.52,77a15.57,15.57,0,0,0-15.88,1.43A16.45,16.45,0,0,0,246.78,80l-98.4,89.77-42.86-32.53a10.38,10.38,0,0,0-13.27.59L78.5,150.37a10.41,10.41,0,0,0,0,15.39l37.17,33.91L78.49,233.58a10.4,10.4,0,0,0,0,15.38l13.75,12.51a10.39,10.39,0,0,0,13.27.59l42.86-32.54,98.4,89.77A15.64,15.64,0,0,0,252.13,322.79ZM262.37,143l-74.66,56.68,74.66,56.67Z"/>
      </g>
    </g>
  </g>
  <rect class="cls-8" width="400" height="400"/>
</svg>
