<svg id="Ebene_1" data-name="Ebene 1" xmlns="http://www.w3.org/2000/svg" viewBox="0 0 300 300">
  <defs>
    <style>
      .cls-1 {
        fill: #eee;
      }
    </style>
  </defs>
  <g id="Rocket">
    <path class="cls-1" d="M242,104.1a24.08,24.08,0,0,0-17-16.88c-14.91-4-75-4-75-4s-60.07.16-75,4.16a24.05,24.05,0,0,0-17,16.88c-4.52,26.29-6.27,66.36.12,91.6a24.08,24.08,0,0,0,17,16.88c14.91,4,75,4,75,4s60.06,0,75-4a24.05,24.05,0,0,0,17-16.88C246.84,169.53,248.3,129.49,242,104.1ZM130.78,178.62V121.38L180.63,150Z"/>
  </g>
</svg>
