<svg id="Logo" xmlns="http://www.w3.org/2000/svg" viewBox="0 0 1024 1024">
  <defs>
    <style>
      .cls-1 {
        fill: #eee;
      }
    </style>
  </defs>
  <g>
    <path class="cls-1" d="M576.8,728.24a69.21,69.21,0,0,0-59.94-34.6h-1.33a69.21,69.21,0,0,0-59.94,34.6l-.67,1.16a69.23,69.23,0,0,0,0,69.21l.67,1.16a69.2,69.2,0,0,0,59.94,34.61h1.33a69.2,69.2,0,0,0,59.94-34.61l.67-1.16a69.23,69.23,0,0,0,0-69.21Z"/>
    <polygon class="cls-1" points="219.91 715.68 397.68 834.19 397.68 693.46 219.91 574.94 219.91 715.68"/>
    <polygon class="cls-1" points="634.71 834.19 812.49 715.68 812.49 574.94 634.71 693.46 634.71 834.19"/>
    <polygon class="cls-1" points="516.2 396.35 219.91 186.65 219.91 352.73 219.91 360.13 219.91 498.45 345.83 583.24 345.83 447.93 516.2 566.71 686.56 447.93 686.56 583.24 812.49 498.45 812.49 360.13 812.49 352.73 812.49 186.65 516.2 396.35"/>
  </g>
</svg>
