<svg id="Ebene_1" data-name="Ebene 1" xmlns="http://www.w3.org/2000/svg" viewBox="0 0 1000 1000">
  <defs>
    <style>
      .cls-1 {
        fill: #ddd;
        fill-rule: evenodd;
      }
    </style>
  </defs>
  <path class="cls-1" d="M569.8,638.39c14.08,12.12,26.62,36.06,26.62,72.65,0,52.44-.48,94.74-.48,107.6,0,5.25,1.77,12.46,6,16.34H395.29c4.32-3.88,6.15-11.07,6.15-16.32,0-9.31-.34-34-.54-66.71-109.09,23.69-132.12-52.61-132.12-52.61C250.94,654,225.23,642,225.23,642c-35.61-24.34,2.7-23.84,2.7-23.84C267.29,620.9,288,658.55,288,658.55c35,59.94,91.81,42.63,114.16,32.59,3.56-25.35,13.7-42.64,24.9-52.43C340,628.8,248.39,595.16,248.39,444.83c0-42.82,15.28-77.83,40.37-105.25-4-9.93-17.5-49.8,3.85-103.82,0,0,32.94-10.54,107.86,40.22a371.6,371.6,0,0,1,196.4,0c74.88-50.76,107.76-40.22,107.76-40.22,21.39,54,7.93,93.89,3.94,103.82C733.71,367,748.89,402,748.89,444.83,748.89,595.53,657.17,628.68,569.8,638.39Z"/>
</svg>
