<svg id="Ebene_1" data-name="Ebene 1" xmlns="http://www.w3.org/2000/svg" viewBox="0 0 300 300">
  <defs>
    <style>
      .cls-1 {
        fill: #eee;
      }
    </style>
  </defs>
  <path class="cls-1" d="M193.42,53H106.58a53.54,53.54,0,0,0-53.49,53.49v86.84a53.54,53.54,0,0,0,53.49,53.49h86.84a53.54,53.54,0,0,0,53.49-53.49V106.49A53.54,53.54,0,0,0,193.42,53Zm36.29,140.33a36.33,36.33,0,0,1-36.29,36.29H106.58a36.33,36.33,0,0,1-36.29-36.29V106.49A36.33,36.33,0,0,1,106.58,70.2h86.84a36.33,36.33,0,0,1,36.29,36.29Z"/>
  <path class="cls-1" d="M214.65,98a12.63,12.63,0,1,1-3.75-8.94A12.72,12.72,0,0,1,214.65,98Z"/>
  <path class="cls-1" d="M150,100a49.94,49.94,0,1,0,49.94,49.94A49.94,49.94,0,0,0,150,100Zm0,82.68a32.74,32.74,0,1,1,32.73-32.74A32.74,32.74,0,0,1,150,182.65Z"/>
</svg>
