<svg xmlns="http://www.w3.org/2000/svg" viewBox="0 0 300 300">
  <defs>
    <style>
      .cls-1 {
        fill: #eee;
      }
    </style>
  </defs>
  <g id="Rocket">
    <g>
      <path class="cls-1" d="M150,0A150,150,0,1,0,300,150,150,150,0,0,0,150,0Zm96.91,193.33a53.54,53.54,0,0,1-53.49,53.49H106.58a53.54,53.54,0,0,1-53.49-53.49V106.49A53.55,53.55,0,0,1,106.58,53h86.84a53.55,53.55,0,0,1,53.49,53.49Z"/>
      <path class="cls-1" d="M229.71,106.49A36.33,36.33,0,0,0,193.42,70.2H106.58a36.33,36.33,0,0,0-36.29,36.29v86.84a36.33,36.33,0,0,0,36.29,36.29h86.84a36.33,36.33,0,0,0,36.29-36.29h0ZM150,199.85a49.94,49.94,0,1,1,49.94-49.94A50,50,0,0,1,150,199.85Zm61-92.93A12.63,12.63,0,1,1,214.65,98,12.74,12.74,0,0,1,211,106.92Z"/>
      <path class="cls-1" d="M150,117.17a32.74,32.74,0,1,0,32.75,32.74A32.78,32.78,0,0,0,150,117.17Z"/>
    </g>
  </g>
</svg>
