<svg xmlns="http://www.w3.org/2000/svg" viewBox="0 0 1000 1000">
  <defs>
    <style>
      .cls-1 {
        fill: #eee;
      }
    </style>
  </defs>
  <g id="Ebene_3" data-name="Ebene 3">
    <rect class="cls-1" x="277.69" y="420.92" width="93.74" height="301.59"/>
    <path class="cls-1" d="M378.94,325.34h0a54.59,54.59,0,0,1-54.33,54.34h0a54.34,54.34,0,1,1,54.34-54.35Z"/>
    <path class="cls-1" d="M722.55,557.07l0,165.44H628.86V575.85c0-35-.62-80-48.7-80-48.78,0-56.24,38.11-56.24,77.45V722.5H430.27V420.92h89.9v41.21h1.26a98.63,98.63,0,0,1,88.7-48.71C705.05,413.42,722.55,475.85,722.55,557.07Z"/>
    <path class="cls-1" d="M500,0C223.86,0,0,223.85,0,500s223.86,500,500,500,500-223.86,500-500S776.15,0,500,0ZM816,770.39A46.43,46.43,0,0,1,769.19,816H230.63A46.36,46.36,0,0,1,184,770.39V229.6A46.33,46.33,0,0,1,230.63,184H769.19v0A46.41,46.41,0,0,1,816,229.56Z"/>
  </g>
</svg>
