<svg xmlns="http://www.w3.org/2000/svg" viewBox="0 0 1000 1000">
  <defs>
    <style>
      .cls-1 {
        fill: #ddd;
      }
    </style>
  </defs>
  <g id="Ebene_3" data-name="Ebene 3">
    <g id="mail">
      <polygon class="cls-1" points="500 466.64 766.83 299.87 766.83 366.58 500 533.35 233.16 366.58 233.16 299.87 500 466.64"/>
      <path class="cls-1" d="M500,0C223.86,0,0,223.86,0,500s223.86,500,500,500,500-223.85,500-500S776.14,0,500,0ZM833.54,700.12a66.91,66.91,0,0,1-66.71,66.71H233.16a66.9,66.9,0,0,1-66.7-66.71l.33-400.25c0-36.69,29.69-66.71,66.37-66.71H766.83a66.91,66.91,0,0,1,66.71,66.71Z"/>
    </g>
  </g>
</svg>
