<svg xmlns="http://www.w3.org/2000/svg" viewBox="0 0 1000 1000">
  <defs>
    <style>
      .cls-1 {
        fill: #eee;
      }
    </style>
  </defs>
  <g id="Ebene_3" data-name="Ebene 3">
    <g id="svg_1" data-name="svg 1">
      <path id="svg_2" data-name="svg 2" class="cls-1" d="M464.28,1.25C344.91,10.12,236,59.2,150.53,142.74c-112.45,109.69-166.37,265-146.44,421C29,758.82,166.55,921.28,355.51,978.77c146.1,44.48,308.67,18.09,432.54-70,152.2-108.42,231.36-288.28,207.85-472.4C971,241.25,833.44,78.79,644.48,21.3,588.25,4.13,522.69-3.13,464.28,1.25ZM606,353.47c33,8.42,53.58,20.74,72.93,43.56,21.43,25.35,32.26,47.24,35.61,71.9l1.26,10.25,3-1.5c4.84-2.42,20.62-4.72,31.22-4.61,10.83.12,25.24,3.81,36.64,9.45,16.83,8.18,35.61,33.88,39.29,53.81,1.73,9.33,1.5,26.15-.46,35.37-2.65,12.68-11.06,27.65-21.43,38-7.37,7.38-10.6,9.68-20.74,14.52-6.57,3.11-14.52,6.45-17.74,7.26-4.61,1.15-30.65,1.5-124.67,1.73l-118.79.11-3.34-2.65-3.23-2.53V496.46c0-85.95.35-132,1.15-133.08,1.27-1.72,6.57-3.68,22.47-8.75C559.79,348.17,583.65,347.83,606,353.47Zm-99.21,19.59c2.54,2.54,5,174.22,3,219.15-1.73,40.44-2.07,41.48-13.14,40.44-5.53-.46-6.45-3.57-8.06-25.35-1.84-26.61-.58-225.37,1.61-231.59a10.89,10.89,0,0,1,5.07-6c3.57-2,4-2,6.91-.11A46.63,46.63,0,0,1,506.79,373.06Zm-29.26,13.37c2.65,2,2.3-5.42,4.72,91.14.92,39.86,1.38,77,1,82.38s-1.15,22.58-1.61,38.14c-.81,24.31-1.27,28.8-3.12,31.45-2.53,4-5.87,5.3-9.9,3.92-3.69-1.27-4.61-3.8-5-12.44-.69-17.06-3-53-3.8-57.61-.92-5.53,2.65-165,3.8-171.34S472.46,382.63,477.53,386.43Zm-80.89,22.81c.46,1.38,1.27,35.6,2.08,76.05,1.61,86.41.34,139.76-3.46,144.94-2.42,3.46-10.48,4.84-10.48,1.85,0-1-.47-1.85-1-1.85s-1-2.76-1-6.1-1.27-19.36-2.65-35.61l-2.42-29.61,2.42-65.44c1.27-36,2.54-69.94,2.65-75.59.23-10.48,1.15-12.67,6.11-13.71C391.8,403.6,395.84,406.13,396.64,409.24Zm26.27-1c0,.12.23,6.46.58,14.06s1.5,41.13,2.76,74.55l2.31,60.83-2.31,29.5c-1.38,16.25-2.53,32.61-2.65,36.41-.11,7.37-1.26,9.1-6.45,9.68-7.95.92-8.87-4.26-10-59.45-.92-44.59,1.27-158.78,3.11-162.93a7.3,7.3,0,0,1,9.45-3.91C421.42,407.63,422.8,408.2,422.91,408.2Zm-55.42,2.54c0,.92.35,1.73.92,1.73s.93,4.49,1,10.14,1.61,38.25,3.34,72.7l3,62.57-3,30.76c-1.61,16.82-3.11,32.84-3.34,35.6-.69,9-6.8,12.1-11.41,5.88-1.72-2.31-2.3-8.18-4-36.18-1.73-30.07-1.73-39.18-.46-91,2-75.24,2.65-89.76,4.61-92.07S367.49,408.32,367.49,410.74Zm84.57,6.68c.47,1.38,1.39,33.88,2.08,72.13,1.5,77.08.34,131.93-2.88,139.76-1.5,3.69-2.08,4-6.92,4.15-5.87.23-6.56-.69-7.25-10.72-.23-3.22-1.5-18.78-2.77-34.79l-2.42-29,2.31-61.41c1.38-33.76,2.53-66,2.65-71.55.34-10.95,1.26-12.91,6.68-13.71C447.11,411.66,451.14,414.08,452.06,417.42Zm-110.61,8.64c.35,2.42,1.5,33.65,2.54,69.48,1.84,60.61,1.84,67.29,0,96.21-1,17-1.85,32.49-1.85,34.22,0,3.23-4.37,8.87-6.91,8.87s-4.84-4.61-5.3-11.06c-.34-3.8-1.5-19.47-2.76-35C325.09,564,325,557,326,530.57c.58-16.48,1.73-46.78,2.31-67.29s1.73-38.25,2.3-39.41c1.15-2.07,4.84-3.22,8.3-2.42C340.07,421.8,341.11,423.53,341.45,426.06Zm-28.11,21.66c0,.93.34,1.62.92,1.62s.92,3.45,1,7.83,1.61,28.69,3.22,54.39l3,46.66-3.46,36.06c-1.84,19.94-4,36.76-4.61,37.57-1,1.26-3,1.38-7,.8-2.54-.46-3.46-7.95-5.3-40-1.73-31.34-1.85-39.4-.58-67.86.81-17.75,1.84-41.6,2.42-53s1.27-21.67,1.73-22.82C306.31,445.07,313.34,444,313.34,447.72ZM261,489.2c.11,2.54,2,18.9,3.92,36.41l3.68,32L265.06,589c-2,17.29-3.8,33.76-3.92,36.64-.34,4.84-.57,5.19-3.91,5.54-3.57.34-3.57.34-4.27-6.34-.34-3.69-1.72-20.4-3-37.22l-2.31-30.53,2.77-35.72c2.42-30.19,3.11-35.83,4.84-37.1C258.26,482.06,260.8,484.13,261,489.2Zm-26-1.84c.69,1.27,2.42,17.86,3.92,36.87l2.76,34.57-2.76,32.83c-1.5,18.09-3.23,34-3.92,35.26-1.73,3-6.22,2.54-6.57-.69-.11-1.27-1.84-16.82-3.92-34.57l-3.8-32.26L224.39,526c2.07-18.32,3.69-34.8,3.69-36.53C228.08,484.94,232.92,483.44,235,487.36Zm51.62,2.07c2.53,2.54,2.88,6.23,4.95,45.75,1.27,22.93,1.15,31-.57,59.91-1.85,31.8-2.08,33.53-4.61,36.07-3,3-6.11,2.41-7-1.39-.35-1.26-2.07-17.74-4-36.41l-3.34-34,3.45-34.56c2.77-27.77,3.8-34.8,5.42-36.07C283.27,486.9,284.19,487,286.61,489.43Zm-79.16,7.95c.23,3.58,1.62,11.76,5.07,32.61,2.19,13.25,4,25.7,4,27.89,0,3.34-7.72,55.53-8.75,59.33-.58,2.19-4.84,1.73-5.53-.57-1.27-4-4.15-49.55-4.15-65.91a269.47,269.47,0,0,1,1.73-28.23c.92-6.33,1.73-13.59,1.73-16.13s.8-5.87,1.84-7.26C205.15,496.58,207.22,495.77,207.45,497.38Zm-22.58,24.78c.23,1.49,1.61,10.37,2.88,19.7l2.42,17-2.42,15.79c-3.34,22.12-3.34,22.12-5.53,22.12-1.61,0-2.65-3.46-5.53-19l-3.46-19L176.57,540c1.85-10.26,3.92-19,4.61-19.48C183.37,519.16,184.18,519.51,184.87,522.16Z"/>
    </g>
  </g>
</svg>
