<svg id="Ebene_1" data-name="Ebene 1" xmlns="http://www.w3.org/2000/svg" viewBox="0 0 1000 1000">
  <defs>
    <style>
      .cls-1 {
        fill: #eee;
      }
    </style>
  </defs>
  <path class="cls-1" d="M511.94,204c-166.37-.49-307.33,133.58-307.44,306.87C204.39,681.29,341.15,816.7,509,818.12,682.6,819.59,818.93,680,819.25,512.29v-2.06C819,340.8,681.36,203.7,511.94,204ZM652.2,646c-5.44,9-16.61,11.81-26,6.12-35.49-21.53-74.06-34.08-115.07-39.43-15.53-2-31.15-3.16-41.61-3A502.31,502.31,0,0,0,358.15,622.4c-9.85,2.21-18.31-1.45-22.26-9.62a18.43,18.43,0,0,1,4.84-22.27,19,19,0,0,1,8.24-3.94A563,563,0,0,1,420,575a441.78,441.78,0,0,1,50-2.39c54.28,1,106.38,11.55,155,36.5,6.9,3.53,13.67,7.36,20.3,11.38C654.66,626.22,657.51,637.16,652.2,646Zm39.7-88.09A23.41,23.41,0,0,1,657,570.17c-40.6-24.53-84.94-38.3-131.52-45.57a412.61,412.61,0,0,0-77-5c-32.6,1-64.71,5.4-96.05,14.77-11.14,3.33-21.21-.13-27.4-9.23-5.44-8-4.78-19.6,1.54-27.46a23.6,23.6,0,0,1,12-7.75,404.69,404.69,0,0,1,68.73-14.07A396.6,396.6,0,0,1,460.78,473c61.65-.06,121.08,11.09,177.88,35.4a300.57,300.57,0,0,1,43.6,22.69A22.76,22.76,0,0,1,691.9,557.91Zm42.83-97.74C729,477.46,710,484.76,693.62,475.6a348.64,348.64,0,0,0-42.29-20.42c-31.49-12.44-64.16-20.25-97.54-25.43a576.39,576.39,0,0,0-110.36-5.94c-36.07,1.37-71.74,6-106.5,16.31-12.33,3.65-25-1-31.66-11.22a28.08,28.08,0,0,1,16-42.63c24.91-7.38,50.34-12,76.13-15.09,23.15-2.76,46.4-3.37,66-4.09,67.74.67,130.64,8.77,191.52,29.65a368.82,368.82,0,0,1,64.8,29.16C733.47,433.81,739.15,446.93,734.73,460.17Z"/>
</svg>
