<svg xmlns="http://www.w3.org/2000/svg" viewBox="0 0 300 300">
  <defs>
    <style>
      .cls-1 {
        fill: #eee;
      }
    </style>
  </defs>
  <g id="Rocket">
    <g>
      <polygon class="cls-1" points="130.78 178.62 180.63 150 130.78 121.38 130.78 178.62"/>
      <path class="cls-1" d="M150,0A150,150,0,1,0,300,150,150,150,0,0,0,150,0Zm92.07,195.86a24.06,24.06,0,0,1-17,16.88c-14.94,4-75,4-75,4s-60.09,0-75-4a24.07,24.07,0,0,1-17-16.88c-6.39-25.24-4.64-65.31-.12-91.6a24.06,24.06,0,0,1,17-16.88c14.93-4,75-4.16,75-4.16s60.09,0,75,4a24.07,24.07,0,0,1,17,16.88C248.3,129.49,246.84,169.53,242.07,195.86Z"/>
    </g>
  </g>
</svg>
